<svg xmlns="http://www.w3.org/2000/svg" viewBox="0 0 256 288">
  <path d="M243.867 204.203c3.596 2.446-3.453-2.445.0.0 3.165 2.014 4.316 6.186 2.877 9.639-1.295 3.021-4.316 4.891-7.625 4.747-3.309-.144-6.186-2.446-7.193-5.611-1.007-3.165.144-6.761 2.877-8.632 2.734-1.87 6.33-2.014 9.064-.143zM143.45 277.43h5.323c3.597-.144 7.193-.432 10.646-.863 2.877-.288-5.899.719.0.0 3.597-.432 6.474 2.877 5.755 6.474-.432 1.582-1.583 2.877-3.021 3.596-1.007.432-2.014.432-3.021.576-1.151.144-2.446.288-3.597.288-9.495.719-18.99.576-28.485-.432-8.632-1.007-16.976-2.589-25.32-5.179-8.056-2.445-15.825-5.611-23.306-9.495-7.625-3.884-14.674-8.488-21.436-13.667-7.769-5.754-14.818-12.372-21.148-19.709-6.33-7.193-11.941-15.106-16.688-23.306-4.891-8.488-8.92-17.407-11.941-26.758C5.04 174.39 3.026 164.607 1.875 154.681c-1.151-10.07-1.151-20.284-.144-30.355 1.007-9.926 3.021-19.853 6.186-29.348 3.021-9.351 6.905-18.271 11.797-26.902 4.747-8.488 10.502-16.4 16.832-23.738C42.876 37.145 49.925 30.527 57.55 24.629c7.769-5.899 16.113-11.078 24.745-15.25 8.919-4.316 18.271-7.625 27.909-10.07 9.783-2.446 19.853-3.741 29.924-4.172 10.07-.288 20.284.432 30.211 2.158 9.639 1.726 19.134 4.46 28.341 8.056 9.063 3.597 17.696 8.2 25.752 13.523 8.056 5.323 15.537 11.509 22.443 18.414 2.877 2.877 5.467 5.755 7.337 9.495 1.583 3.165 2.446 6.761 2.733 10.214.432 7.193-2.014 14.53-6.905 19.853-5.611 6.33-14.099 9.783-22.443 9.207-4.028-.288-8.056-1.439-11.653-3.453-1.87-1.007-3.596-2.302-5.035-3.741-1.726-1.582-3.309-3.453-5.035-5.035-7.049-6.618-15.106-11.941-23.881-15.969-9.063-4.028-18.702-6.618-28.485-7.481-10.07-.863-20.284-.144-30.067 2.302-9.495 2.446-18.558 6.474-26.902 11.797-8.056 5.323-15.25 11.941-21.148 19.421-6.042 7.625-10.79 16.257-14.099 25.464-3.309 9.351-5.035 19.278-5.035 29.204.0 10.07 1.583 19.997 4.891 29.492 3.165 9.207 7.913 17.696 13.811 25.32 5.898 7.625 13.092 14.243 21.148 19.565 8.2 5.467 17.264 9.495 26.902 11.941 9.783 2.589 19.997 3.309 30.067 2.446 9.783-.863 19.421-3.309 28.485-7.337 1.007-.432 1.87-1.007 2.877-1.151.863-.144 1.726-.144 2.589.144 1.726.575 3.021 1.87 3.453 3.596.432 1.583.144 3.453-1.007 4.748-.576.719-1.439 1.151-2.302 1.582-1.151.432-2.158 1.007-3.309 1.439-9.207 3.884-18.846 6.33-28.773 7.193-10.07 1.007-20.284.432-30.067-1.583 1.295 1.439 2.446 3.021 3.597 4.604 1.151 1.582 2.302 3.309 3.309 4.891l.575.863h.432c.575.0 1.007.144 1.583.144 1.007.144 2.014.144 3.021.288 4.172.288 8.344.288 12.516.144 8.2-.432 16.4-1.583 24.313-3.884 7.625-2.158 15.106-5.179 22.155-8.92 6.905-3.74 13.379-8.056 19.277-13.235 1.439-1.295 2.877-2.59 4.316-3.884 1.295-1.151 2.302-2.59 3.884-3.309 2.734-1.439 6.042-1.007 8.344.863 2.446 1.87 3.453 5.035 2.734 8.056-.432 1.583-1.151 2.877-2.302 3.884-1.439 1.295-2.733 2.734-4.172 4.028-5.754 5.179-11.941 9.927-18.558 13.955-6.762 4.172-13.811 7.625-21.292 10.358-7.625 2.877-15.393 4.892-23.45 6.186-8.2 1.295-16.544 1.87-24.888 1.583.719 1.87 1.295 3.74 1.87 5.611.288.863.432 1.726.719 2.589l.0.288 1.151.719zM223.726 250.959c2.302-1.726-14.818 10.934.0.0 .719-.576 1.726-1.007 2.877-1.295 1.87-.144 3.884.863 4.891 2.589 1.007 1.726 1.007 4.028-.144 5.611-.719 1.007-1.726 1.582-2.589 2.302-1.007.719-2.158 1.439-3.165 2.158-2.014 1.439-4.172 2.877-6.33 4.172-8.632 5.323-17.839 9.783-27.334 13.092-4.748 1.726-9.639 3.165-14.53 4.316-2.158.432-4.316.144-5.755-1.726-1.295-1.583-1.582-3.741-.576-5.611.432-.863 1.007-1.582 1.87-2.014 1.007-.576 2.158-.719 3.165-1.007 2.446-.576 4.891-1.295 7.337-2.014 4.891-1.583 9.639-3.309 14.243-5.323 9.207-4.028 17.983-9.207 26.039-15.25zM240.99 235.422c2.014-2.158-1.87 2.014.0.0 2.302-2.446 6.474-2.014 8.2 1.439.72 1.151.863 2.733.576 4.028-.432 1.726-1.726 2.877-2.877 4.028-1.295 1.439-2.733 2.877-4.172 4.172-1.295 1.151-2.877 1.87-4.748 1.582-3.021-.432-5.035-3.596-4.172-6.618.576-1.582 1.87-2.589 3.021-3.74 1.439-1.439 2.877-2.877 4.172-4.316v-.575zM208.333 205.21c2.014-2.014-5.035 5.323.0.0 1.726-1.726 4.46-2.014 6.618-.863 2.158 1.295 3.021 4.028 2.158 6.33-.576 1.151-1.439 2.014-2.302 2.877-1.007 1.007-1.87 2.014-2.877 2.877-1.726 1.583-3.453 3.165-5.179 4.604-1.87 1.439-3.884 2.877-5.898 4.316-2.158 1.582-4.028 1.726-6.042.0-1.726-1.439-2.302-3.884-1.439-5.898.432-1.007 1.151-1.87 2.014-2.446 1.007-.719 2.158-1.582 3.165-2.302 3.741-2.877 7.193-6.042 10.502-9.495h.28zM144.026 109.973c1.726.0 3.453.144 5.323.144 6.762 1.151 13.235 4.316 18.271 9.064 4.891 4.747 8.488 11.078 9.783 17.839 1.439 7.05.575 14.386-2.302 20.86-2.877 6.33-7.481 11.509-13.379 15.106-6.042 3.74-13.235 5.467-20.284 4.891-6.906-.432-13.667-3.165-18.99-7.625-5.323-4.316-9.207-10.214-11.078-16.832-2.014-6.905-1.726-14.386.719-21.004 2.302-6.474 6.618-12.084 12.229-16.113 5.754-4.172 12.66-6.33 19.709-6.33z" fill="#FF6C36" fill-rule="nonzero"/>
</svg>
