<svg xmlns="http://www.w3.org/2000/svg" xmlns:xlink="http://www.w3.org/1999/xlink" width="500" zoomAndPan="magnify" viewBox="0 0 375 374.999991" height="500" preserveAspectRatio="xMidYMid meet" version="1.0"><defs><clipPath id="id1"><path d="M 125 312 L 154 312 L 154 340.011719 L 125 340.011719 Z M 125 312 " clip-rule="nonzero"/></clipPath><clipPath id="id2"><path d="M 0 27.261719 L 375 27.261719 L 375 340.011719 L 0 340.011719 Z M 0 27.261719 " clip-rule="nonzero"/></clipPath></defs><path fill="rgb(92.158508%, 46.269226%, 29.40979%)" d="M 97.597656 140.445312 L 132.328125 140.445312 L 132.328125 175.152344 L 97.597656 175.152344 Z M 97.597656 140.445312 " fill-opacity="1" fill-rule="evenodd"/><path fill="rgb(74.119568%, 72.938538%, 81.17981%)" d="M 191.226562 113.183594 L 219.121094 113.183594 L 219.121094 141.082031 L 191.226562 141.082031 Z M 191.226562 113.183594 " fill-opacity="1" fill-rule="evenodd"/><path fill="rgb(92.158508%, 46.269226%, 29.40979%)" d="M 137.289062 181.027344 L 165.183594 181.027344 L 165.183594 208.90625 L 137.289062 208.90625 Z M 137.289062 181.027344 " fill-opacity="1" fill-rule="evenodd"/><path fill="rgb(74.119568%, 72.938538%, 81.17981%)" d="M 102.257812 211.394531 L 116.207031 211.394531 L 116.207031 225.332031 L 102.257812 225.332031 Z M 102.257812 211.394531 " fill-opacity="1" fill-rule="evenodd"/><path fill="rgb(74.119568%, 72.938538%, 81.17981%)" d="M 91.238281 103.128906 L 105.207031 103.128906 L 105.207031 117.066406 L 91.238281 117.066406 Z M 91.238281 103.128906 " fill-opacity="1" fill-rule="evenodd"/><path fill="rgb(74.119568%, 72.938538%, 81.17981%)" d="M 159.445312 142.15625 L 173.394531 142.15625 L 173.394531 156.09375 L 159.445312 156.09375 Z M 159.445312 142.15625 " fill-opacity="1" fill-rule="evenodd"/><path fill="rgb(74.119568%, 72.938538%, 81.17981%)" d="M 233.847656 101.414062 L 247.792969 101.414062 L 247.792969 115.355469 L 233.847656 115.355469 Z M 233.847656 101.414062 " fill-opacity="1" fill-rule="evenodd"/><path fill="rgb(74.119568%, 72.938538%, 81.17981%)" d="M 222.351562 75.390625 L 241.9375 75.390625 L 241.9375 94.984375 L 222.351562 94.984375 Z M 222.351562 75.390625 " fill-opacity="1" fill-rule="evenodd"/><path fill="rgb(74.119568%, 72.938538%, 81.17981%)" d="M 151.535156 46.277344 L 171.140625 46.277344 L 171.140625 65.851562 L 151.535156 65.851562 Z M 151.535156 46.277344 " fill-opacity="1" fill-rule="evenodd"/><path fill="rgb(74.119568%, 72.938538%, 81.17981%)" d="M 199.035156 67.882812 L 212.984375 67.882812 L 212.984375 81.820312 L 199.035156 81.820312 Z M 199.035156 67.882812 " fill-opacity="1" fill-rule="evenodd"/><path fill="rgb(74.119568%, 72.938538%, 81.17981%)" d="M 269.8125 110.554688 L 283.761719 110.554688 L 283.761719 124.492188 L 269.8125 124.492188 Z M 269.8125 110.554688 " fill-opacity="1" fill-rule="evenodd"/><path fill="rgb(92.158508%, 46.269226%, 29.40979%)" d="M 191.046875 154.421875 L 226.714844 154.421875 L 226.714844 190.066406 L 191.046875 190.066406 Z M 191.046875 154.421875 " fill-opacity="1" fill-rule="evenodd"/><path fill="rgb(92.158508%, 46.269226%, 29.40979%)" d="M 116.484375 245.644531 L 157.414062 245.644531 L 157.414062 286.542969 L 116.484375 286.542969 Z M 116.484375 245.644531 " fill-opacity="1" fill-rule="evenodd"/><path fill="rgb(74.119568%, 72.938538%, 81.17981%)" d="M 167.792969 219.199219 L 195.6875 219.199219 L 195.6875 247.097656 L 167.792969 247.097656 Z M 167.792969 219.199219 " fill-opacity="1" fill-rule="evenodd"/><path fill="rgb(92.158508%, 46.269226%, 29.40979%)" d="M 211.75 255.539062 L 239.644531 255.539062 L 239.644531 283.417969 L 211.75 283.417969 Z M 211.75 255.539062 " fill-opacity="1" fill-rule="evenodd"/><g clip-path="url(#id1)"><path fill="rgb(74.119568%, 72.938538%, 81.17981%)" d="M 125.53125 312.132812 L 153.425781 312.132812 L 153.425781 340.011719 L 125.53125 340.011719 Z M 125.53125 312.132812 " fill-opacity="1" fill-rule="evenodd"/></g><path fill="rgb(74.119568%, 72.938538%, 81.17981%)" d="M 232.890625 142.335938 L 260.785156 142.335938 L 260.785156 170.214844 L 232.890625 170.214844 Z M 232.890625 142.335938 " fill-opacity="1" fill-rule="evenodd"/><path fill="rgb(74.119568%, 72.938538%, 81.17981%)" d="M 136.730469 217.726562 L 150.679688 217.726562 L 150.679688 231.664062 L 136.730469 231.664062 Z M 136.730469 217.726562 " fill-opacity="1" fill-rule="evenodd"/><path fill="rgb(74.119568%, 72.938538%, 81.17981%)" d="M 183.992188 197.296875 L 197.941406 197.296875 L 197.941406 211.234375 L 183.992188 211.234375 Z M 183.992188 197.296875 " fill-opacity="1" fill-rule="evenodd"/><path fill="rgb(74.119568%, 72.938538%, 81.17981%)" d="M 171.976562 266.292969 L 196.964844 266.292969 L 196.964844 291.242188 L 171.976562 291.242188 Z M 171.976562 266.292969 " fill-opacity="1" fill-rule="evenodd"/><path fill="rgb(74.119568%, 72.938538%, 81.17981%)" d="M 163.949219 316.3125 L 180.484375 316.3125 L 180.484375 332.820312 L 163.949219 332.820312 Z M 163.949219 316.3125 " fill-opacity="1" fill-rule="evenodd"/><path fill="rgb(74.119568%, 72.938538%, 81.17981%)" d="M 204.953125 210.539062 L 229.921875 210.539062 L 229.921875 235.488281 L 204.953125 235.488281 Z M 204.953125 210.539062 " fill-opacity="1" fill-rule="evenodd"/><path fill="rgb(74.119568%, 72.938538%, 81.17981%)" d="M 236.21875 186.878906 L 261.203125 186.878906 L 261.203125 211.832031 L 236.21875 211.832031 Z M 236.21875 186.878906 " fill-opacity="1" fill-rule="evenodd"/><path fill="rgb(92.158508%, 46.269226%, 29.40979%)" d="M 131.707031 82.21875 L 172.617188 82.21875 L 172.617188 123.101562 L 131.707031 123.101562 Z M 131.707031 82.21875 " fill-opacity="1" fill-rule="evenodd"/><g clip-path="url(#id2)"><path fill="rgb(74.119568%, 72.938538%, 81.17981%)" d="M 0.597656 170.273438 C 8.929688 170.054688 15.761719 167.824219 21.042969 163.503906 C 26.261719 159.222656 29.769531 153.347656 31.542969 145.898438 C 33.277344 138.414062 34.152344 125.570312 34.273438 107.46875 C 34.371094 89.367188 34.710938 77.421875 35.269531 71.707031 C 36.265625 62.605469 38.039062 55.257812 40.710938 49.722656 C 43.378906 44.226562 46.667969 39.785156 50.550781 36.441406 C 54.496094 33.152344 59.5 30.605469 65.554688 28.894531 C 69.660156 27.835938 76.394531 27.28125 85.722656 27.28125 L 94.828125 27.28125 L 94.828125 52.828125 L 89.765625 52.828125 C 78.488281 52.828125 71.035156 54.820312 67.308594 58.941406 C 63.644531 63.003906 61.808594 72.042969 61.808594 86.160156 C 61.808594 114.597656 61.191406 132.539062 59.976562 140.046875 C 58.042969 151.65625 54.695312 160.597656 49.972656 166.867188 C 45.253906 173.199219 37.859375 178.757812 27.738281 183.636719 C 39.691406 188.632812 48.359375 196.238281 53.742188 206.515625 C 59.082031 216.730469 61.789062 233.554688 61.789062 256.894531 C 61.789062 278 61.949219 290.605469 62.40625 294.609375 C 63.304688 301.996094 65.457031 307.171875 69.023438 310.101562 C 72.53125 312.988281 79.464844 314.480469 89.746094 314.480469 L 94.808594 314.480469 L 94.808594 340.03125 L 85.699219 340.03125 C 75.082031 340.03125 67.371094 339.152344 62.585938 337.421875 C 55.632812 334.933594 49.914062 330.871094 45.351562 325.3125 C 40.789062 319.699219 37.800781 312.648438 36.464844 304.046875 C 35.128906 295.484375 34.351562 281.445312 34.234375 261.890625 C 34.113281 242.398438 33.238281 228.898438 31.503906 221.410156 C 29.730469 213.902344 26.222656 208.027344 21.003906 203.6875 C 15.722656 199.304688 8.886719 197.015625 0.558594 196.855469 L 0.558594 170.3125 Z M 374.402344 170.273438 L 374.402344 196.816406 C 366.070312 196.976562 359.238281 199.265625 353.957031 203.648438 C 348.738281 207.988281 345.230469 213.863281 343.457031 221.25 C 341.742188 228.699219 340.785156 241.460938 340.726562 259.5625 C 340.605469 277.722656 340.289062 289.609375 339.730469 295.386719 C 338.734375 304.605469 336.941406 311.933594 334.289062 317.429688 C 331.621094 322.925781 328.351562 327.304688 324.449219 330.589844 C 320.503906 333.917969 315.5 336.425781 309.445312 338.136719 C 305.339844 339.351562 298.605469 339.96875 289.277344 339.96875 L 280.152344 339.96875 L 280.152344 314.421875 L 285.214844 314.421875 C 296.492188 314.421875 303.945312 312.371094 307.671875 308.308594 C 311.335938 304.246094 313.167969 295.085938 313.167969 280.867188 C 313.167969 253.769531 313.667969 236.542969 314.664062 229.273438 C 316.398438 217.289062 319.882812 207.609375 325.066406 200.402344 C 330.285156 193.234375 337.679688 187.617188 347.242188 183.574219 C 334.730469 177.640625 325.960938 169.753906 320.839844 159.917969 C 315.71875 150.082031 313.167969 133.535156 313.167969 110.214844 C 313.167969 89.050781 312.949219 76.445312 312.394531 72.28125 C 311.617188 64.996094 309.503906 59.957031 305.9375 57.070312 C 302.429688 54.242188 295.496094 52.789062 285.214844 52.789062 L 280.152344 52.789062 L 280.152344 27.238281 L 289.277344 27.238281 C 299.898438 27.238281 307.609375 28.078125 312.394531 29.847656 C 319.347656 32.238281 325.066406 36.242188 329.628906 41.835938 C 334.191406 47.492188 337.179688 54.601562 338.515625 63.164062 C 339.851562 71.785156 340.628906 85.824219 340.746094 105.316406 C 340.804688 124.871094 341.742188 138.3125 343.476562 145.761719 C 345.25 153.207031 348.757812 159.082031 353.976562 163.421875 C 359.257812 167.765625 366.09375 170.035156 374.421875 170.253906 Z M 374.402344 170.273438 " fill-opacity="1" fill-rule="nonzero"/></g></svg>