<svg xmlns="http://www.w3.org/2000/svg" xmlns:xlink="http://www.w3.org/1999/xlink" width="1200" zoomAndPan="magnify" viewBox="0 0 900 470.999988" height="628" preserveAspectRatio="xMidYMid meet" version="1.0"><defs><g/><clipPath id="id1"><path d="M 390 301 L 418 301 L 418 328.570312 L 390 328.570312 Z M 390 301 " clip-rule="nonzero"/></clipPath><clipPath id="id2"><path d="M 270.316406 28.570312 L 629.566406 28.570312 L 629.566406 328.570312 L 270.316406 328.570312 Z M 270.316406 28.570312 " clip-rule="nonzero"/></clipPath><clipPath id="id3"><path d="M 346 416 L 554 416 L 554 416.476562 L 346 416.476562 Z M 417.773438 416.476562 L 469.152344 416.476562 L 469.152344 419 L 417.773438 419 Z M 479.03125 416.476562 L 554 416.476562 L 554 419 L 479.03125 419 Z M 346 416.476562 L 407.898438 416.476562 L 407.898438 419 L 346 419 Z M 346 416.476562 " clip-rule="nonzero"/></clipPath><clipPath id="id4"><path d="M 310 444 L 590 444 L 590 444.226562 L 310 444.226562 Z M 381.210938 444.226562 L 432.589844 444.226562 L 432.589844 446.976562 L 381.210938 446.976562 Z M 499.332031 444.226562 L 590 444.226562 L 590 446.976562 L 499.332031 446.976562 Z M 442.46875 444.226562 L 484.457031 444.226562 L 484.457031 446.976562 L 442.46875 446.976562 Z M 310 444.226562 L 371.335938 444.226562 L 371.335938 446.976562 L 310 446.976562 Z M 310 446.976562 L 590 446.976562 L 590 447 L 310 447 Z M 310 446.976562 " clip-rule="nonzero"/></clipPath></defs><rect x="-90" width="1080" fill="#ffffff" y="-47.099999" height="565.199986" fill-opacity="1"/><rect x="-90" width="1080" fill="#222222" y="-47.099999" height="565.199986" fill-opacity="1"/><rect x="-90" width="1080" fill="#ffffff" y="-47.099999" height="565.199986" fill-opacity="1"/><rect x="-90" width="1080" fill="#222222" y="-47.099999" height="565.199986" fill-opacity="1"/><path fill="#eb764b" d="M 363.8125 137.140625 L 397.085938 137.140625 L 397.085938 170.433594 L 363.8125 170.433594 Z M 363.8125 137.140625 " fill-opacity="1" fill-rule="evenodd"/><path fill="#bdbacf" d="M 453.511719 110.992188 L 480.234375 110.992188 L 480.234375 137.753906 L 453.511719 137.753906 Z M 453.511719 110.992188 " fill-opacity="1" fill-rule="evenodd"/><path fill="#eb764b" d="M 401.835938 176.070312 L 428.5625 176.070312 L 428.5625 202.8125 L 401.835938 202.8125 Z M 401.835938 176.070312 " fill-opacity="1" fill-rule="evenodd"/><path fill="#bdbacf" d="M 368.277344 205.199219 L 381.640625 205.199219 L 381.640625 218.570312 L 368.277344 218.570312 Z M 368.277344 205.199219 " fill-opacity="1" fill-rule="evenodd"/><path fill="#bdbacf" d="M 357.722656 101.347656 L 371.105469 101.347656 L 371.105469 114.71875 L 357.722656 114.71875 Z M 357.722656 101.347656 " fill-opacity="1" fill-rule="evenodd"/><path fill="#bdbacf" d="M 423.0625 138.785156 L 436.425781 138.785156 L 436.425781 152.15625 L 423.0625 152.15625 Z M 423.0625 138.785156 " fill-opacity="1" fill-rule="evenodd"/><path fill="#bdbacf" d="M 494.339844 99.703125 L 507.703125 99.703125 L 507.703125 113.074219 L 494.339844 113.074219 Z M 494.339844 99.703125 " fill-opacity="1" fill-rule="evenodd"/><path fill="#bdbacf" d="M 483.328125 74.738281 L 502.089844 74.738281 L 502.089844 93.535156 L 483.328125 93.535156 Z M 483.328125 74.738281 " fill-opacity="1" fill-rule="evenodd"/><path fill="#bdbacf" d="M 415.484375 46.8125 L 434.269531 46.8125 L 434.269531 65.589844 L 415.484375 65.589844 Z M 415.484375 46.8125 " fill-opacity="1" fill-rule="evenodd"/><path fill="#bdbacf" d="M 460.992188 67.539062 L 474.355469 67.539062 L 474.355469 80.90625 L 460.992188 80.90625 Z M 460.992188 67.539062 " fill-opacity="1" fill-rule="evenodd"/><path fill="#bdbacf" d="M 528.796875 108.472656 L 542.160156 108.472656 L 542.160156 121.839844 L 528.796875 121.839844 Z M 528.796875 108.472656 " fill-opacity="1" fill-rule="evenodd"/><path fill="#eb764b" d="M 453.339844 150.550781 L 487.507812 150.550781 L 487.507812 184.742188 L 453.339844 184.742188 Z M 453.339844 150.550781 " fill-opacity="1" fill-rule="evenodd"/><path fill="#eb764b" d="M 381.910156 238.050781 L 421.117188 238.050781 L 421.117188 277.285156 L 381.910156 277.285156 Z M 381.910156 238.050781 " fill-opacity="1" fill-rule="evenodd"/><path fill="#bdbacf" d="M 431.0625 212.6875 L 457.785156 212.6875 L 457.785156 239.445312 L 431.0625 239.445312 Z M 431.0625 212.6875 " fill-opacity="1" fill-rule="evenodd"/><path fill="#eb764b" d="M 473.171875 247.546875 L 499.894531 247.546875 L 499.894531 274.285156 L 473.171875 274.285156 Z M 473.171875 247.546875 " fill-opacity="1" fill-rule="evenodd"/><g clip-path="url(#id1)"><path fill="#bdbacf" d="M 390.574219 301.828125 L 417.300781 301.828125 L 417.300781 328.570312 L 390.574219 328.570312 Z M 390.574219 301.828125 " fill-opacity="1" fill-rule="evenodd"/></g><path fill="#bdbacf" d="M 493.425781 138.957031 L 520.148438 138.957031 L 520.148438 165.699219 L 493.425781 165.699219 Z M 493.425781 138.957031 " fill-opacity="1" fill-rule="evenodd"/><path fill="#bdbacf" d="M 401.304688 211.273438 L 414.664062 211.273438 L 414.664062 224.644531 L 401.304688 224.644531 Z M 401.304688 211.273438 " fill-opacity="1" fill-rule="evenodd"/><path fill="#bdbacf" d="M 446.582031 191.675781 L 459.945312 191.675781 L 459.945312 205.046875 L 446.582031 205.046875 Z M 446.582031 191.675781 " fill-opacity="1" fill-rule="evenodd"/><path fill="#bdbacf" d="M 435.070312 257.859375 L 459.007812 257.859375 L 459.007812 281.792969 L 435.070312 281.792969 Z M 435.070312 257.859375 " fill-opacity="1" fill-rule="evenodd"/><path fill="#bdbacf" d="M 427.378906 305.839844 L 443.222656 305.839844 L 443.222656 321.675781 L 427.378906 321.675781 Z M 427.378906 305.839844 " fill-opacity="1" fill-rule="evenodd"/><path fill="#bdbacf" d="M 466.664062 204.375 L 490.582031 204.375 L 490.582031 228.308594 L 466.664062 228.308594 Z M 466.664062 204.375 " fill-opacity="1" fill-rule="evenodd"/><path fill="#bdbacf" d="M 496.613281 181.683594 L 520.550781 181.683594 L 520.550781 205.617188 L 496.613281 205.617188 Z M 496.613281 181.683594 " fill-opacity="1" fill-rule="evenodd"/><path fill="#eb764b" d="M 396.492188 81.289062 L 435.683594 81.289062 L 435.683594 120.503906 L 396.492188 120.503906 Z M 396.492188 81.289062 " fill-opacity="1" fill-rule="evenodd"/><g clip-path="url(#id2)"><path fill="#bdbacf" d="M 270.886719 165.753906 C 278.867188 165.542969 285.414062 163.40625 290.472656 159.261719 C 295.472656 155.152344 298.835938 149.519531 300.53125 142.375 C 302.195312 135.191406 303.035156 122.871094 303.148438 105.511719 C 303.242188 88.148438 303.566406 76.6875 304.101562 71.203125 C 305.058594 62.476562 306.757812 55.425781 309.3125 50.117188 C 311.871094 44.84375 315.019531 40.585938 318.742188 37.378906 C 322.523438 34.226562 327.316406 31.78125 333.117188 30.136719 C 337.050781 29.125 343.5 28.589844 352.433594 28.589844 L 361.160156 28.589844 L 361.160156 53.097656 L 356.308594 53.097656 C 345.507812 53.097656 338.367188 55.007812 334.796875 58.960938 C 331.285156 62.859375 329.527344 71.53125 329.527344 85.070312 C 329.527344 112.347656 328.9375 129.558594 327.773438 136.757812 C 325.921875 147.894531 322.714844 156.472656 318.191406 162.488281 C 313.667969 168.5625 306.585938 173.890625 296.886719 178.570312 C 308.339844 183.367188 316.644531 190.664062 321.796875 200.519531 C 326.914062 210.316406 329.511719 226.457031 329.511719 248.84375 C 329.511719 269.089844 329.664062 281.183594 330.101562 285.019531 C 330.960938 292.109375 333.023438 297.074219 336.4375 299.882812 C 339.796875 302.652344 346.441406 304.082031 356.292969 304.082031 L 361.140625 304.082031 L 361.140625 328.589844 L 352.417969 328.589844 C 342.242188 328.589844 334.855469 327.75 330.273438 326.089844 C 323.613281 323.699219 318.132812 319.804688 313.761719 314.476562 C 309.390625 309.089844 306.527344 302.328125 305.246094 294.074219 C 303.96875 285.863281 303.222656 272.394531 303.109375 253.636719 C 302.996094 234.9375 302.15625 221.988281 300.496094 214.804688 C 298.796875 207.605469 295.4375 201.96875 290.433594 197.804688 C 285.375 193.605469 278.828125 191.40625 270.851562 191.253906 L 270.851562 165.792969 Z M 628.992188 165.753906 L 628.992188 191.214844 C 621.015625 191.367188 614.46875 193.566406 609.410156 197.769531 C 604.40625 201.933594 601.046875 207.566406 599.347656 214.652344 C 597.707031 221.796875 596.789062 234.039062 596.734375 251.402344 C 596.621094 268.824219 596.3125 280.226562 595.777344 285.765625 C 594.824219 294.609375 593.105469 301.640625 590.566406 306.910156 C 588.011719 312.183594 584.878906 316.386719 581.136719 319.535156 C 577.359375 322.726562 572.566406 325.132812 566.765625 326.777344 C 562.832031 327.941406 556.378906 328.53125 547.445312 328.53125 L 538.703125 328.53125 L 538.703125 304.027344 L 543.550781 304.027344 C 554.355469 304.027344 561.496094 302.058594 565.066406 298.164062 C 568.578125 294.265625 570.332031 285.480469 570.332031 271.839844 C 570.332031 245.84375 570.8125 229.324219 571.765625 222.351562 C 573.425781 210.851562 576.765625 201.570312 581.730469 194.65625 C 586.730469 187.777344 593.8125 182.390625 602.976562 178.515625 C 590.988281 172.820312 582.589844 165.257812 577.683594 155.820312 C 572.777344 146.386719 570.332031 130.511719 570.332031 108.144531 C 570.332031 87.839844 570.125 75.75 569.589844 71.757812 C 568.84375 64.769531 566.820312 59.933594 563.40625 57.164062 C 560.046875 54.453125 553.402344 53.058594 543.550781 53.058594 L 538.703125 53.058594 L 538.703125 28.550781 L 547.445312 28.550781 C 557.621094 28.550781 565.007812 29.355469 569.589844 31.054688 C 576.25 33.347656 581.730469 37.1875 586.101562 42.554688 C 590.472656 47.976562 593.335938 54.796875 594.613281 63.011719 C 595.894531 71.28125 596.636719 84.746094 596.753906 103.445312 C 596.808594 122.203125 597.707031 135.097656 599.367188 142.242188 C 601.066406 149.386719 604.425781 155.019531 609.429688 159.183594 C 614.484375 163.347656 621.035156 165.527344 629.011719 165.734375 Z M 628.992188 165.753906 " fill-opacity="1" fill-rule="nonzero"/></g><g fill="#bdbacf" fill-opacity="1"><g transform="translate(367.691428, 359.850122)"><g><path d="M 13.640625 -7.28125 C 13.640625 -4.925781 12.96875 -3.125 11.625 -1.875 C 10.289062 -0.625 8.363281 0 5.84375 0 L 1.796875 0 L 1.796875 -14.28125 L 6.28125 -14.28125 C 8.613281 -14.28125 10.421875 -13.664062 11.703125 -12.4375 C 12.992188 -11.207031 13.640625 -9.488281 13.640625 -7.28125 Z M 10.5 -7.203125 C 10.5 -10.265625 9.144531 -11.796875 6.4375 -11.796875 L 4.828125 -11.796875 L 4.828125 -2.5 L 6.125 -2.5 C 9.039062 -2.5 10.5 -4.066406 10.5 -7.203125 Z M 10.5 -7.203125 "/></g></g></g><g fill="#bdbacf" fill-opacity="1"><g transform="translate(382.490331, 359.850122)"><g><path d="M 11.34375 0 L 8.359375 0 L 8.359375 -6.375 C 8.359375 -7.164062 8.222656 -7.753906 7.953125 -8.140625 C 7.691406 -8.535156 7.28125 -8.734375 6.71875 -8.734375 C 5.957031 -8.734375 5.40625 -8.453125 5.0625 -7.890625 C 4.71875 -7.335938 4.546875 -6.421875 4.546875 -5.140625 L 4.546875 0 L 1.5625 0 L 1.5625 -10.921875 L 3.84375 -10.921875 L 4.234375 -9.515625 L 4.40625 -9.515625 C 4.695312 -10.023438 5.117188 -10.421875 5.671875 -10.703125 C 6.222656 -10.984375 6.859375 -11.125 7.578125 -11.125 C 9.210938 -11.125 10.320312 -10.585938 10.90625 -9.515625 L 11.15625 -9.515625 C 11.457031 -10.023438 11.890625 -10.421875 12.453125 -10.703125 C 13.023438 -10.984375 13.671875 -11.125 14.390625 -11.125 C 15.617188 -11.125 16.550781 -10.804688 17.1875 -10.171875 C 17.820312 -9.535156 18.140625 -8.519531 18.140625 -7.125 L 18.140625 0 L 15.15625 0 L 15.15625 -6.375 C 15.15625 -7.164062 15.019531 -7.753906 14.75 -8.140625 C 14.488281 -8.535156 14.078125 -8.734375 13.515625 -8.734375 C 12.785156 -8.734375 12.238281 -8.472656 11.875 -7.953125 C 11.519531 -7.429688 11.34375 -6.609375 11.34375 -5.484375 Z M 11.34375 0 "/></g></g></g><g fill="#bdbacf" fill-opacity="1"><g transform="translate(402.12133, 359.850122)"><g><path d="M 1.4375 -13.734375 C 1.4375 -14.710938 1.976562 -15.203125 3.0625 -15.203125 C 4.132812 -15.203125 4.671875 -14.710938 4.671875 -13.734375 C 4.671875 -13.273438 4.535156 -12.914062 4.265625 -12.65625 C 4.003906 -12.40625 3.601562 -12.28125 3.0625 -12.28125 C 1.976562 -12.28125 1.4375 -12.765625 1.4375 -13.734375 Z M 4.546875 0 L 1.5625 0 L 1.5625 -10.921875 L 4.546875 -10.921875 Z M 4.546875 0 "/></g></g></g><g fill="#bdbacf" fill-opacity="1"><g transform="translate(408.222461, 359.850122)"><g><path d="M 6.15625 -2.171875 C 6.675781 -2.171875 7.300781 -2.285156 8.03125 -2.515625 L 8.03125 -0.296875 C 7.289062 0.0351562 6.378906 0.203125 5.296875 0.203125 C 4.109375 0.203125 3.242188 -0.0976562 2.703125 -0.703125 C 2.160156 -1.304688 1.890625 -2.210938 1.890625 -3.421875 L 1.890625 -8.6875 L 0.453125 -8.6875 L 0.453125 -9.9375 L 2.09375 -10.9375 L 2.953125 -13.25 L 4.859375 -13.25 L 4.859375 -10.921875 L 7.921875 -10.921875 L 7.921875 -8.6875 L 4.859375 -8.6875 L 4.859375 -3.421875 C 4.859375 -2.992188 4.976562 -2.675781 5.21875 -2.46875 C 5.457031 -2.269531 5.769531 -2.171875 6.15625 -2.171875 Z M 6.15625 -2.171875 "/></g></g></g><g fill="#bdbacf" fill-opacity="1"><g transform="translate(416.90071, 359.850122)"><g><path d="M 7.65625 -11.125 C 8.0625 -11.125 8.394531 -11.09375 8.65625 -11.03125 L 8.4375 -8.25 C 8.195312 -8.3125 7.90625 -8.34375 7.5625 -8.34375 C 6.613281 -8.34375 5.875 -8.097656 5.34375 -7.609375 C 4.8125 -7.117188 4.546875 -6.4375 4.546875 -5.5625 L 4.546875 0 L 1.5625 0 L 1.5625 -10.921875 L 3.8125 -10.921875 L 4.265625 -9.078125 L 4.40625 -9.078125 C 4.738281 -9.691406 5.191406 -10.1875 5.765625 -10.5625 C 6.347656 -10.9375 6.976562 -11.125 7.65625 -11.125 Z M 7.65625 -11.125 "/></g></g></g><g fill="#bdbacf" fill-opacity="1"><g transform="translate(425.979193, 359.850122)"><g><path d="M 1.4375 -13.734375 C 1.4375 -14.710938 1.976562 -15.203125 3.0625 -15.203125 C 4.132812 -15.203125 4.671875 -14.710938 4.671875 -13.734375 C 4.671875 -13.273438 4.535156 -12.914062 4.265625 -12.65625 C 4.003906 -12.40625 3.601562 -12.28125 3.0625 -12.28125 C 1.976562 -12.28125 1.4375 -12.765625 1.4375 -13.734375 Z M 4.546875 0 L 1.5625 0 L 1.5625 -10.921875 L 4.546875 -10.921875 Z M 4.546875 0 "/></g></g></g><g fill="#bdbacf" fill-opacity="1"><g transform="translate(432.080324, 359.850122)"><g><path d="M 0 -10.921875 L 3.265625 -10.921875 L 5.328125 -4.78125 C 5.503906 -4.238281 5.625 -3.601562 5.6875 -2.875 L 5.75 -2.875 C 5.8125 -3.550781 5.945312 -4.1875 6.15625 -4.78125 L 8.1875 -10.921875 L 11.375 -10.921875 L 6.765625 1.390625 C 6.335938 2.535156 5.726562 3.390625 4.9375 3.953125 C 4.15625 4.523438 3.242188 4.8125 2.203125 4.8125 C 1.679688 4.8125 1.175781 4.753906 0.6875 4.640625 L 0.6875 2.28125 C 1.039062 2.363281 1.429688 2.40625 1.859375 2.40625 C 2.378906 2.40625 2.835938 2.242188 3.234375 1.921875 C 3.628906 1.597656 3.9375 1.109375 4.15625 0.453125 L 4.34375 -0.078125 Z M 0 -10.921875 "/></g></g></g><g fill="#bdbacf" fill-opacity="1"><g transform="translate(443.452832, 359.850122)"><g/></g></g><g fill="#bdbacf" fill-opacity="1"><g transform="translate(448.646115, 359.850122)"><g><path d="M 7.84375 0 L 4.40625 -11.203125 L 4.3125 -11.203125 C 4.4375 -8.921875 4.5 -7.398438 4.5 -6.640625 L 4.5 0 L 1.796875 0 L 1.796875 -14.28125 L 5.921875 -14.28125 L 9.296875 -3.359375 L 9.359375 -3.359375 L 12.9375 -14.28125 L 17.0625 -14.28125 L 17.0625 0 L 14.234375 0 L 14.234375 -6.765625 C 14.234375 -7.078125 14.238281 -7.441406 14.25 -7.859375 C 14.257812 -8.273438 14.304688 -9.382812 14.390625 -11.1875 L 14.296875 -11.1875 L 10.609375 0 Z M 7.84375 0 "/></g></g></g><g fill="#bdbacf" fill-opacity="1"><g transform="translate(467.49617, 359.850122)"><g><path d="M 8.5 0 L 7.921875 -1.484375 L 7.84375 -1.484375 C 7.34375 -0.847656 6.828125 -0.40625 6.296875 -0.15625 C 5.765625 0.0820312 5.070312 0.203125 4.21875 0.203125 C 3.164062 0.203125 2.335938 -0.0976562 1.734375 -0.703125 C 1.140625 -1.304688 0.84375 -2.160156 0.84375 -3.265625 C 0.84375 -4.421875 1.242188 -5.273438 2.046875 -5.828125 C 2.859375 -6.378906 4.082031 -6.679688 5.71875 -6.734375 L 7.625 -6.796875 L 7.625 -7.28125 C 7.625 -8.382812 7.054688 -8.9375 5.921875 -8.9375 C 5.046875 -8.9375 4.019531 -8.671875 2.84375 -8.140625 L 1.859375 -10.15625 C 3.109375 -10.8125 4.5 -11.140625 6.03125 -11.140625 C 7.5 -11.140625 8.625 -10.820312 9.40625 -10.1875 C 10.1875 -9.550781 10.578125 -8.582031 10.578125 -7.28125 L 10.578125 0 Z M 7.625 -5.0625 L 6.46875 -5.015625 C 5.601562 -4.992188 4.957031 -4.835938 4.53125 -4.546875 C 4.101562 -4.265625 3.890625 -3.832031 3.890625 -3.25 C 3.890625 -2.40625 4.375 -1.984375 5.34375 -1.984375 C 6.03125 -1.984375 6.582031 -2.179688 7 -2.578125 C 7.414062 -2.972656 7.625 -3.5 7.625 -4.15625 Z M 7.625 -5.0625 "/></g></g></g><g fill="#bdbacf" fill-opacity="1"><g transform="translate(479.571528, 359.850122)"><g><path d="M 4.546875 0 L 1.5625 0 L 1.5625 -15.203125 L 4.546875 -15.203125 Z M 4.546875 0 "/></g></g></g><g fill="#bdbacf" fill-opacity="1"><g transform="translate(485.672659, 359.850122)"><g><path d="M 8.5 0 L 7.921875 -1.484375 L 7.84375 -1.484375 C 7.34375 -0.847656 6.828125 -0.40625 6.296875 -0.15625 C 5.765625 0.0820312 5.070312 0.203125 4.21875 0.203125 C 3.164062 0.203125 2.335938 -0.0976562 1.734375 -0.703125 C 1.140625 -1.304688 0.84375 -2.160156 0.84375 -3.265625 C 0.84375 -4.421875 1.242188 -5.273438 2.046875 -5.828125 C 2.859375 -6.378906 4.082031 -6.679688 5.71875 -6.734375 L 7.625 -6.796875 L 7.625 -7.28125 C 7.625 -8.382812 7.054688 -8.9375 5.921875 -8.9375 C 5.046875 -8.9375 4.019531 -8.671875 2.84375 -8.140625 L 1.859375 -10.15625 C 3.109375 -10.8125 4.5 -11.140625 6.03125 -11.140625 C 7.5 -11.140625 8.625 -10.820312 9.40625 -10.1875 C 10.1875 -9.550781 10.578125 -8.582031 10.578125 -7.28125 L 10.578125 0 Z M 7.625 -5.0625 L 6.46875 -5.015625 C 5.601562 -4.992188 4.957031 -4.835938 4.53125 -4.546875 C 4.101562 -4.265625 3.890625 -3.832031 3.890625 -3.25 C 3.890625 -2.40625 4.375 -1.984375 5.34375 -1.984375 C 6.03125 -1.984375 6.582031 -2.179688 7 -2.578125 C 7.414062 -2.972656 7.625 -3.5 7.625 -4.15625 Z M 7.625 -5.0625 "/></g></g></g><g fill="#bdbacf" fill-opacity="1"><g transform="translate(497.748018, 359.850122)"><g><path d="M 0 -10.921875 L 3.265625 -10.921875 L 5.328125 -4.78125 C 5.503906 -4.238281 5.625 -3.601562 5.6875 -2.875 L 5.75 -2.875 C 5.8125 -3.550781 5.945312 -4.1875 6.15625 -4.78125 L 8.1875 -10.921875 L 11.375 -10.921875 L 6.765625 1.390625 C 6.335938 2.535156 5.726562 3.390625 4.9375 3.953125 C 4.15625 4.523438 3.242188 4.8125 2.203125 4.8125 C 1.679688 4.8125 1.175781 4.753906 0.6875 4.640625 L 0.6875 2.28125 C 1.039062 2.363281 1.429688 2.40625 1.859375 2.40625 C 2.378906 2.40625 2.835938 2.242188 3.234375 1.921875 C 3.628906 1.597656 3.9375 1.109375 4.15625 0.453125 L 4.34375 -0.078125 Z M 0 -10.921875 "/></g></g></g><g fill="#bdbacf" fill-opacity="1"><g transform="translate(509.120526, 359.850122)"><g><path d="M 6.078125 -9 C 5.453125 -9 4.957031 -8.796875 4.59375 -8.390625 C 4.238281 -7.992188 4.035156 -7.429688 3.984375 -6.703125 L 8.171875 -6.703125 C 8.148438 -7.429688 7.953125 -7.992188 7.578125 -8.390625 C 7.210938 -8.796875 6.710938 -9 6.078125 -9 Z M 6.5 0.203125 C 4.75 0.203125 3.378906 -0.28125 2.390625 -1.25 C 1.398438 -2.226562 0.90625 -3.601562 0.90625 -5.375 C 0.90625 -7.207031 1.359375 -8.625 2.265625 -9.625 C 3.179688 -10.625 4.445312 -11.125 6.0625 -11.125 C 7.601562 -11.125 8.800781 -10.679688 9.65625 -9.796875 C 10.519531 -8.921875 10.953125 -7.707031 10.953125 -6.15625 L 10.953125 -4.71875 L 3.921875 -4.71875 C 3.953125 -3.875 4.203125 -3.210938 4.671875 -2.734375 C 5.140625 -2.253906 5.796875 -2.015625 6.640625 -2.015625 C 7.296875 -2.015625 7.914062 -2.082031 8.5 -2.21875 C 9.09375 -2.363281 9.707031 -2.582031 10.34375 -2.875 L 10.34375 -0.578125 C 9.820312 -0.316406 9.265625 -0.125 8.671875 0 C 8.078125 0.132812 7.351562 0.203125 6.5 0.203125 Z M 6.5 0.203125 "/></g></g></g><g fill="#bdbacf" fill-opacity="1"><g transform="translate(520.932316, 359.850122)"><g><path d="M 4.15625 0 L 0 -10.921875 L 3.109375 -10.921875 L 5.21875 -4.703125 C 5.457031 -3.910156 5.609375 -3.164062 5.671875 -2.46875 L 5.71875 -2.46875 C 5.75 -3.09375 5.894531 -3.835938 6.15625 -4.703125 L 8.265625 -10.921875 L 11.375 -10.921875 L 7.21875 0 Z M 4.15625 0 "/></g></g></g><g fill="#bdbacf" fill-opacity="1"><g transform="translate(380.781274, 387.60012)"><g><path d="M 0.796875 -5.484375 C 0.796875 -7.203125 1.046875 -8.8125 1.546875 -10.3125 C 2.054688 -11.820312 2.785156 -13.144531 3.734375 -14.28125 L 5.328125 -14.28125 C 4.390625 -13.019531 3.679688 -11.632812 3.203125 -10.125 C 2.734375 -8.625 2.5 -7.082031 2.5 -5.5 C 2.5 -3.9375 2.738281 -2.410156 3.21875 -0.921875 C 3.707031 0.566406 4.398438 1.929688 5.296875 3.171875 L 3.734375 3.171875 C 2.785156 2.054688 2.054688 0.757812 1.546875 -0.71875 C 1.046875 -2.195312 0.796875 -3.785156 0.796875 -5.484375 Z M 0.796875 -5.484375 "/></g></g></g><g fill="#bdbacf" fill-opacity="1"><g transform="translate(386.687524, 387.60012)"><g><path d="M 10.21875 -11.078125 C 10.21875 -10.191406 9.945312 -9.4375 9.40625 -8.8125 C 8.875 -8.1875 8.117188 -7.753906 7.140625 -7.515625 L 7.140625 -7.46875 C 8.296875 -7.320312 9.164062 -6.96875 9.75 -6.40625 C 10.34375 -5.851562 10.640625 -5.101562 10.640625 -4.15625 C 10.640625 -2.78125 10.140625 -1.707031 9.140625 -0.9375 C 8.148438 -0.175781 6.734375 0.203125 4.890625 0.203125 C 3.335938 0.203125 1.960938 -0.0546875 0.765625 -0.578125 L 0.765625 -3.140625 C 1.316406 -2.859375 1.921875 -2.628906 2.578125 -2.453125 C 3.242188 -2.285156 3.90625 -2.203125 4.5625 -2.203125 C 5.5625 -2.203125 6.296875 -2.367188 6.765625 -2.703125 C 7.242188 -3.046875 7.484375 -3.59375 7.484375 -4.34375 C 7.484375 -5.007812 7.207031 -5.484375 6.65625 -5.765625 C 6.113281 -6.046875 5.242188 -6.1875 4.046875 -6.1875 L 2.953125 -6.1875 L 2.953125 -8.5 L 4.0625 -8.5 C 5.164062 -8.5 5.972656 -8.640625 6.484375 -8.921875 C 6.992188 -9.210938 7.25 -9.710938 7.25 -10.421875 C 7.25 -11.503906 6.570312 -12.046875 5.21875 -12.046875 C 4.75 -12.046875 4.269531 -11.96875 3.78125 -11.8125 C 3.300781 -11.65625 2.765625 -11.382812 2.171875 -11 L 0.78125 -13.078125 C 2.082031 -14.015625 3.632812 -14.484375 5.4375 -14.484375 C 6.914062 -14.484375 8.082031 -14.179688 8.9375 -13.578125 C 9.789062 -12.984375 10.21875 -12.148438 10.21875 -11.078125 Z M 10.21875 -11.078125 "/></g></g></g><g fill="#bdbacf" fill-opacity="1"><g transform="translate(398.099079, 387.60012)"><g><path d="M 11.109375 -2.953125 L 9.390625 -2.953125 L 9.390625 0 L 6.4375 0 L 6.4375 -2.953125 L 0.34375 -2.953125 L 0.34375 -5.0625 L 6.609375 -14.28125 L 9.390625 -14.28125 L 9.390625 -5.296875 L 11.109375 -5.296875 Z M 6.4375 -5.296875 L 6.4375 -7.71875 C 6.4375 -8.125 6.453125 -8.710938 6.484375 -9.484375 C 6.515625 -10.253906 6.539062 -10.703125 6.5625 -10.828125 L 6.484375 -10.828125 C 6.242188 -10.285156 5.953125 -9.765625 5.609375 -9.265625 L 3 -5.296875 Z M 6.4375 -5.296875 "/></g></g></g><g fill="#bdbacf" fill-opacity="1"><g transform="translate(409.510635, 387.60012)"><g><path d="M 2.21875 0 L 7.578125 -11.71875 L 0.53125 -11.71875 L 0.53125 -14.265625 L 10.78125 -14.265625 L 10.78125 -12.359375 L 5.375 0 Z M 2.21875 0 "/></g></g></g><g fill="#bdbacf" fill-opacity="1"><g transform="translate(420.92219, 387.60012)"><g><path d="M 5.984375 -5.484375 C 5.984375 -3.765625 5.726562 -2.164062 5.21875 -0.6875 C 4.71875 0.789062 3.988281 2.078125 3.03125 3.171875 L 0.609375 3.171875 C 1.492188 1.972656 2.175781 0.628906 2.65625 -0.859375 C 3.132812 -2.347656 3.375 -3.894531 3.375 -5.5 C 3.375 -7.082031 3.140625 -8.625 2.671875 -10.125 C 2.203125 -11.632812 1.507812 -13.019531 0.59375 -14.28125 L 3.03125 -14.28125 C 3.988281 -13.132812 4.71875 -11.804688 5.21875 -10.296875 C 5.726562 -8.796875 5.984375 -7.191406 5.984375 -5.484375 Z M 5.984375 -5.484375 "/></g></g></g><g fill="#bdbacf" fill-opacity="1"><g transform="translate(427.696886, 387.60012)"><g/></g></g><g fill="#bdbacf" fill-opacity="1"><g transform="translate(432.890169, 387.60012)"><g><path d="M 2.21875 0 L 7.578125 -11.71875 L 0.53125 -11.71875 L 0.53125 -14.265625 L 10.78125 -14.265625 L 10.78125 -12.359375 L 5.375 0 Z M 2.21875 0 "/></g></g></g><g fill="#bdbacf" fill-opacity="1"><g transform="translate(444.301724, 387.60012)"><g><path d="M 0.703125 -6.0625 C 0.703125 -8.882812 1.296875 -10.984375 2.484375 -12.359375 C 3.679688 -13.742188 5.472656 -14.4375 7.859375 -14.4375 C 8.671875 -14.4375 9.3125 -14.390625 9.78125 -14.296875 L 9.78125 -11.890625 C 9.195312 -12.015625 8.625 -12.078125 8.0625 -12.078125 C 7.019531 -12.078125 6.171875 -11.921875 5.515625 -11.609375 C 4.867188 -11.296875 4.378906 -10.832031 4.046875 -10.21875 C 3.722656 -9.613281 3.535156 -8.75 3.484375 -7.625 L 3.609375 -7.625 C 4.253906 -8.726562 5.285156 -9.28125 6.703125 -9.28125 C 7.972656 -9.28125 8.96875 -8.878906 9.6875 -8.078125 C 10.414062 -7.273438 10.78125 -6.164062 10.78125 -4.75 C 10.78125 -3.226562 10.347656 -2.019531 9.484375 -1.125 C 8.628906 -0.238281 7.441406 0.203125 5.921875 0.203125 C 4.867188 0.203125 3.945312 -0.0390625 3.15625 -0.53125 C 2.375 -1.019531 1.769531 -1.734375 1.34375 -2.671875 C 0.914062 -3.609375 0.703125 -4.738281 0.703125 -6.0625 Z M 5.859375 -2.21875 C 6.503906 -2.21875 7 -2.429688 7.34375 -2.859375 C 7.6875 -3.296875 7.859375 -3.914062 7.859375 -4.71875 C 7.859375 -5.414062 7.695312 -5.960938 7.375 -6.359375 C 7.050781 -6.765625 6.566406 -6.96875 5.921875 -6.96875 C 5.304688 -6.96875 4.78125 -6.765625 4.34375 -6.359375 C 3.914062 -5.960938 3.703125 -5.503906 3.703125 -4.984375 C 3.703125 -4.203125 3.90625 -3.546875 4.3125 -3.015625 C 4.71875 -2.484375 5.234375 -2.21875 5.859375 -2.21875 Z M 5.859375 -2.21875 "/></g></g></g><g fill="#bdbacf" fill-opacity="1"><g transform="translate(455.71328, 387.60012)"><g><path d="M 8.265625 0 L 5.25 0 L 5.25 -8.265625 L 5.28125 -9.625 L 5.328125 -11.109375 C 4.828125 -10.609375 4.476562 -10.28125 4.28125 -10.125 L 2.640625 -8.796875 L 1.1875 -10.609375 L 5.78125 -14.28125 L 8.265625 -14.28125 Z M 8.265625 0 "/></g></g></g><g fill="#bdbacf" fill-opacity="1"><g transform="translate(467.124835, 387.60012)"><g><path d="M 0.59375 -4.140625 L 0.59375 -6.578125 L 5.84375 -6.578125 L 5.84375 -4.140625 Z M 0.59375 -4.140625 "/></g></g></g><g fill="#bdbacf" fill-opacity="1"><g transform="translate(473.557868, 387.60012)"><g><path d="M 11.109375 -2.953125 L 9.390625 -2.953125 L 9.390625 0 L 6.4375 0 L 6.4375 -2.953125 L 0.34375 -2.953125 L 0.34375 -5.0625 L 6.609375 -14.28125 L 9.390625 -14.28125 L 9.390625 -5.296875 L 11.109375 -5.296875 Z M 6.4375 -5.296875 L 6.4375 -7.71875 C 6.4375 -8.125 6.453125 -8.710938 6.484375 -9.484375 C 6.515625 -10.253906 6.539062 -10.703125 6.5625 -10.828125 L 6.484375 -10.828125 C 6.242188 -10.285156 5.953125 -9.765625 5.609375 -9.265625 L 3 -5.296875 Z M 6.4375 -5.296875 "/></g></g></g><g fill="#bdbacf" fill-opacity="1"><g transform="translate(484.969423, 387.60012)"><g><path d="M 11.109375 -2.953125 L 9.390625 -2.953125 L 9.390625 0 L 6.4375 0 L 6.4375 -2.953125 L 0.34375 -2.953125 L 0.34375 -5.0625 L 6.609375 -14.28125 L 9.390625 -14.28125 L 9.390625 -5.296875 L 11.109375 -5.296875 Z M 6.4375 -5.296875 L 6.4375 -7.71875 C 6.4375 -8.125 6.453125 -8.710938 6.484375 -9.484375 C 6.515625 -10.253906 6.539062 -10.703125 6.5625 -10.828125 L 6.484375 -10.828125 C 6.242188 -10.285156 5.953125 -9.765625 5.609375 -9.265625 L 3 -5.296875 Z M 6.4375 -5.296875 "/></g></g></g><g fill="#bdbacf" fill-opacity="1"><g transform="translate(496.380979, 387.60012)"><g><path d="M 10.703125 -7.140625 C 10.703125 -4.648438 10.289062 -2.800781 9.46875 -1.59375 C 8.65625 -0.394531 7.398438 0.203125 5.703125 0.203125 C 4.054688 0.203125 2.8125 -0.414062 1.96875 -1.65625 C 1.132812 -2.894531 0.71875 -4.722656 0.71875 -7.140625 C 0.71875 -9.660156 1.125 -11.515625 1.9375 -12.703125 C 2.757812 -13.898438 4.015625 -14.5 5.703125 -14.5 C 7.347656 -14.5 8.59375 -13.875 9.4375 -12.625 C 10.28125 -11.375 10.703125 -9.546875 10.703125 -7.140625 Z M 3.71875 -7.140625 C 3.71875 -5.390625 3.867188 -4.132812 4.171875 -3.375 C 4.472656 -2.613281 4.984375 -2.234375 5.703125 -2.234375 C 6.410156 -2.234375 6.921875 -2.617188 7.234375 -3.390625 C 7.546875 -4.160156 7.703125 -5.410156 7.703125 -7.140625 C 7.703125 -8.890625 7.539062 -10.144531 7.21875 -10.90625 C 6.90625 -11.675781 6.398438 -12.0625 5.703125 -12.0625 C 4.992188 -12.0625 4.484375 -11.675781 4.171875 -10.90625 C 3.867188 -10.144531 3.71875 -8.890625 3.71875 -7.140625 Z M 3.71875 -7.140625 "/></g></g></g><g fill="#bdbacf" fill-opacity="1"><g transform="translate(507.792534, 387.60012)"><g><path d="M 10.21875 -11.078125 C 10.21875 -10.191406 9.945312 -9.4375 9.40625 -8.8125 C 8.875 -8.1875 8.117188 -7.753906 7.140625 -7.515625 L 7.140625 -7.46875 C 8.296875 -7.320312 9.164062 -6.96875 9.75 -6.40625 C 10.34375 -5.851562 10.640625 -5.101562 10.640625 -4.15625 C 10.640625 -2.78125 10.140625 -1.707031 9.140625 -0.9375 C 8.148438 -0.175781 6.734375 0.203125 4.890625 0.203125 C 3.335938 0.203125 1.960938 -0.0546875 0.765625 -0.578125 L 0.765625 -3.140625 C 1.316406 -2.859375 1.921875 -2.628906 2.578125 -2.453125 C 3.242188 -2.285156 3.90625 -2.203125 4.5625 -2.203125 C 5.5625 -2.203125 6.296875 -2.367188 6.765625 -2.703125 C 7.242188 -3.046875 7.484375 -3.59375 7.484375 -4.34375 C 7.484375 -5.007812 7.207031 -5.484375 6.65625 -5.765625 C 6.113281 -6.046875 5.242188 -6.1875 4.046875 -6.1875 L 2.953125 -6.1875 L 2.953125 -8.5 L 4.0625 -8.5 C 5.164062 -8.5 5.972656 -8.640625 6.484375 -8.921875 C 6.992188 -9.210938 7.25 -9.710938 7.25 -10.421875 C 7.25 -11.503906 6.570312 -12.046875 5.21875 -12.046875 C 4.75 -12.046875 4.269531 -11.96875 3.78125 -11.8125 C 3.300781 -11.65625 2.765625 -11.382812 2.171875 -11 L 0.78125 -13.078125 C 2.082031 -14.015625 3.632812 -14.484375 5.4375 -14.484375 C 6.914062 -14.484375 8.082031 -14.179688 8.9375 -13.578125 C 9.789062 -12.984375 10.21875 -12.148438 10.21875 -11.078125 Z M 10.21875 -11.078125 "/></g></g></g><g clip-path="url(#id3)"><path fill="#bdbacf" d="M 346.972656 416.851562 L 553.011719 416.851562 L 553.011719 418.351562 L 346.972656 418.351562 Z M 346.972656 416.851562 " fill-opacity="1" fill-rule="nonzero"/></g><g fill="#bdbacf" fill-opacity="1"><g transform="translate(346.972679, 415.350119)"><g><path d="M 5.015625 0.203125 C 3.734375 0.203125 2.726562 -0.296875 2 -1.296875 C 1.269531 -2.296875 0.90625 -3.675781 0.90625 -5.4375 C 0.90625 -7.226562 1.273438 -8.625 2.015625 -9.625 C 2.765625 -10.625 3.789062 -11.125 5.09375 -11.125 C 6.46875 -11.125 7.519531 -10.585938 8.25 -9.515625 L 8.34375 -9.515625 C 8.1875 -10.335938 8.109375 -11.066406 8.109375 -11.703125 L 8.109375 -15.203125 L 11.109375 -15.203125 L 11.109375 0 L 8.8125 0 L 8.25 -1.421875 L 8.109375 -1.421875 C 7.429688 -0.335938 6.398438 0.203125 5.015625 0.203125 Z M 6.0625 -2.171875 C 6.820312 -2.171875 7.378906 -2.390625 7.734375 -2.828125 C 8.085938 -3.273438 8.285156 -4.03125 8.328125 -5.09375 L 8.328125 -5.421875 C 8.328125 -6.585938 8.144531 -7.425781 7.78125 -7.9375 C 7.414062 -8.445312 6.828125 -8.703125 6.015625 -8.703125 C 5.347656 -8.703125 4.832031 -8.421875 4.46875 -7.859375 C 4.101562 -7.296875 3.921875 -6.476562 3.921875 -5.40625 C 3.921875 -4.332031 4.101562 -3.523438 4.46875 -2.984375 C 4.84375 -2.441406 5.375 -2.171875 6.0625 -2.171875 Z M 6.0625 -2.171875 "/></g></g></g><g fill="#bdbacf" fill-opacity="1"><g transform="translate(359.623984, 415.350119)"><g><path d="M 11.34375 0 L 8.359375 0 L 8.359375 -6.375 C 8.359375 -7.164062 8.222656 -7.753906 7.953125 -8.140625 C 7.691406 -8.535156 7.28125 -8.734375 6.71875 -8.734375 C 5.957031 -8.734375 5.40625 -8.453125 5.0625 -7.890625 C 4.71875 -7.335938 4.546875 -6.421875 4.546875 -5.140625 L 4.546875 0 L 1.5625 0 L 1.5625 -10.921875 L 3.84375 -10.921875 L 4.234375 -9.515625 L 4.40625 -9.515625 C 4.695312 -10.023438 5.117188 -10.421875 5.671875 -10.703125 C 6.222656 -10.984375 6.859375 -11.125 7.578125 -11.125 C 9.210938 -11.125 10.320312 -10.585938 10.90625 -9.515625 L 11.15625 -9.515625 C 11.457031 -10.023438 11.890625 -10.421875 12.453125 -10.703125 C 13.023438 -10.984375 13.671875 -11.125 14.390625 -11.125 C 15.617188 -11.125 16.550781 -10.804688 17.1875 -10.171875 C 17.820312 -9.535156 18.140625 -8.519531 18.140625 -7.125 L 18.140625 0 L 15.15625 0 L 15.15625 -6.375 C 15.15625 -7.164062 15.019531 -7.753906 14.75 -8.140625 C 14.488281 -8.535156 14.078125 -8.734375 13.515625 -8.734375 C 12.785156 -8.734375 12.238281 -8.472656 11.875 -7.953125 C 11.519531 -7.429688 11.34375 -6.609375 11.34375 -5.484375 Z M 11.34375 0 "/></g></g></g><g fill="#bdbacf" fill-opacity="1"><g transform="translate(379.254983, 415.350119)"><g><path d="M 1.4375 -13.734375 C 1.4375 -14.710938 1.976562 -15.203125 3.0625 -15.203125 C 4.132812 -15.203125 4.671875 -14.710938 4.671875 -13.734375 C 4.671875 -13.273438 4.535156 -12.914062 4.265625 -12.65625 C 4.003906 -12.40625 3.601562 -12.28125 3.0625 -12.28125 C 1.976562 -12.28125 1.4375 -12.765625 1.4375 -13.734375 Z M 4.546875 0 L 1.5625 0 L 1.5625 -10.921875 L 4.546875 -10.921875 Z M 4.546875 0 "/></g></g></g><g fill="#bdbacf" fill-opacity="1"><g transform="translate(385.356114, 415.350119)"><g><path d="M 6.15625 -2.171875 C 6.675781 -2.171875 7.300781 -2.285156 8.03125 -2.515625 L 8.03125 -0.296875 C 7.289062 0.0351562 6.378906 0.203125 5.296875 0.203125 C 4.109375 0.203125 3.242188 -0.0976562 2.703125 -0.703125 C 2.160156 -1.304688 1.890625 -2.210938 1.890625 -3.421875 L 1.890625 -8.6875 L 0.453125 -8.6875 L 0.453125 -9.9375 L 2.09375 -10.9375 L 2.953125 -13.25 L 4.859375 -13.25 L 4.859375 -10.921875 L 7.921875 -10.921875 L 7.921875 -8.6875 L 4.859375 -8.6875 L 4.859375 -3.421875 C 4.859375 -2.992188 4.976562 -2.675781 5.21875 -2.46875 C 5.457031 -2.269531 5.769531 -2.171875 6.15625 -2.171875 Z M 6.15625 -2.171875 "/></g></g></g><g fill="#bdbacf" fill-opacity="1"><g transform="translate(394.034363, 415.350119)"><g><path d="M 7.65625 -11.125 C 8.0625 -11.125 8.394531 -11.09375 8.65625 -11.03125 L 8.4375 -8.25 C 8.195312 -8.3125 7.90625 -8.34375 7.5625 -8.34375 C 6.613281 -8.34375 5.875 -8.097656 5.34375 -7.609375 C 4.8125 -7.117188 4.546875 -6.4375 4.546875 -5.5625 L 4.546875 0 L 1.5625 0 L 1.5625 -10.921875 L 3.8125 -10.921875 L 4.265625 -9.078125 L 4.40625 -9.078125 C 4.738281 -9.691406 5.191406 -10.1875 5.765625 -10.5625 C 6.347656 -10.9375 6.976562 -11.125 7.65625 -11.125 Z M 7.65625 -11.125 "/></g></g></g><g fill="#bdbacf" fill-opacity="1"><g transform="translate(403.112846, 415.350119)"><g><path d="M 1.4375 -13.734375 C 1.4375 -14.710938 1.976562 -15.203125 3.0625 -15.203125 C 4.132812 -15.203125 4.671875 -14.710938 4.671875 -13.734375 C 4.671875 -13.273438 4.535156 -12.914062 4.265625 -12.65625 C 4.003906 -12.40625 3.601562 -12.28125 3.0625 -12.28125 C 1.976562 -12.28125 1.4375 -12.765625 1.4375 -13.734375 Z M 4.546875 0 L 1.5625 0 L 1.5625 -10.921875 L 4.546875 -10.921875 Z M 4.546875 0 "/></g></g></g><g fill="#bdbacf" fill-opacity="1"><g transform="translate(409.213977, 415.350119)"><g><path d="M 0 -10.921875 L 3.265625 -10.921875 L 5.328125 -4.78125 C 5.503906 -4.238281 5.625 -3.601562 5.6875 -2.875 L 5.75 -2.875 C 5.8125 -3.550781 5.945312 -4.1875 6.15625 -4.78125 L 8.1875 -10.921875 L 11.375 -10.921875 L 6.765625 1.390625 C 6.335938 2.535156 5.726562 3.390625 4.9375 3.953125 C 4.15625 4.523438 3.242188 4.8125 2.203125 4.8125 C 1.679688 4.8125 1.175781 4.753906 0.6875 4.640625 L 0.6875 2.28125 C 1.039062 2.363281 1.429688 2.40625 1.859375 2.40625 C 2.378906 2.40625 2.835938 2.242188 3.234375 1.921875 C 3.628906 1.597656 3.9375 1.109375 4.15625 0.453125 L 4.34375 -0.078125 Z M 0 -10.921875 "/></g></g></g><g fill="#bdbacf" fill-opacity="1"><g transform="translate(420.586485, 415.350119)"><g><path d="M 11.34375 0 L 8.359375 0 L 8.359375 -6.375 C 8.359375 -7.164062 8.222656 -7.753906 7.953125 -8.140625 C 7.691406 -8.535156 7.28125 -8.734375 6.71875 -8.734375 C 5.957031 -8.734375 5.40625 -8.453125 5.0625 -7.890625 C 4.71875 -7.335938 4.546875 -6.421875 4.546875 -5.140625 L 4.546875 0 L 1.5625 0 L 1.5625 -10.921875 L 3.84375 -10.921875 L 4.234375 -9.515625 L 4.40625 -9.515625 C 4.695312 -10.023438 5.117188 -10.421875 5.671875 -10.703125 C 6.222656 -10.984375 6.859375 -11.125 7.578125 -11.125 C 9.210938 -11.125 10.320312 -10.585938 10.90625 -9.515625 L 11.15625 -9.515625 C 11.457031 -10.023438 11.890625 -10.421875 12.453125 -10.703125 C 13.023438 -10.984375 13.671875 -11.125 14.390625 -11.125 C 15.617188 -11.125 16.550781 -10.804688 17.1875 -10.171875 C 17.820312 -9.535156 18.140625 -8.519531 18.140625 -7.125 L 18.140625 0 L 15.15625 0 L 15.15625 -6.375 C 15.15625 -7.164062 15.019531 -7.753906 14.75 -8.140625 C 14.488281 -8.535156 14.078125 -8.734375 13.515625 -8.734375 C 12.785156 -8.734375 12.238281 -8.472656 11.875 -7.953125 C 11.519531 -7.429688 11.34375 -6.609375 11.34375 -5.484375 Z M 11.34375 0 "/></g></g></g><g fill="#bdbacf" fill-opacity="1"><g transform="translate(440.217484, 415.350119)"><g><path d="M 8.5 0 L 7.921875 -1.484375 L 7.84375 -1.484375 C 7.34375 -0.847656 6.828125 -0.40625 6.296875 -0.15625 C 5.765625 0.0820312 5.070312 0.203125 4.21875 0.203125 C 3.164062 0.203125 2.335938 -0.0976562 1.734375 -0.703125 C 1.140625 -1.304688 0.84375 -2.160156 0.84375 -3.265625 C 0.84375 -4.421875 1.242188 -5.273438 2.046875 -5.828125 C 2.859375 -6.378906 4.082031 -6.679688 5.71875 -6.734375 L 7.625 -6.796875 L 7.625 -7.28125 C 7.625 -8.382812 7.054688 -8.9375 5.921875 -8.9375 C 5.046875 -8.9375 4.019531 -8.671875 2.84375 -8.140625 L 1.859375 -10.15625 C 3.109375 -10.8125 4.5 -11.140625 6.03125 -11.140625 C 7.5 -11.140625 8.625 -10.820312 9.40625 -10.1875 C 10.1875 -9.550781 10.578125 -8.582031 10.578125 -7.28125 L 10.578125 0 Z M 7.625 -5.0625 L 6.46875 -5.015625 C 5.601562 -4.992188 4.957031 -4.835938 4.53125 -4.546875 C 4.101562 -4.265625 3.890625 -3.832031 3.890625 -3.25 C 3.890625 -2.40625 4.375 -1.984375 5.34375 -1.984375 C 6.03125 -1.984375 6.582031 -2.179688 7 -2.578125 C 7.414062 -2.972656 7.625 -3.5 7.625 -4.15625 Z M 7.625 -5.0625 "/></g></g></g><g fill="#bdbacf" fill-opacity="1"><g transform="translate(452.292842, 415.350119)"><g><path d="M 4.546875 0 L 1.5625 0 L 1.5625 -15.203125 L 4.546875 -15.203125 Z M 4.546875 0 "/></g></g></g><g fill="#bdbacf" fill-opacity="1"><g transform="translate(458.393973, 415.350119)"><g><path d="M 8.5 0 L 7.921875 -1.484375 L 7.84375 -1.484375 C 7.34375 -0.847656 6.828125 -0.40625 6.296875 -0.15625 C 5.765625 0.0820312 5.070312 0.203125 4.21875 0.203125 C 3.164062 0.203125 2.335938 -0.0976562 1.734375 -0.703125 C 1.140625 -1.304688 0.84375 -2.160156 0.84375 -3.265625 C 0.84375 -4.421875 1.242188 -5.273438 2.046875 -5.828125 C 2.859375 -6.378906 4.082031 -6.679688 5.71875 -6.734375 L 7.625 -6.796875 L 7.625 -7.28125 C 7.625 -8.382812 7.054688 -8.9375 5.921875 -8.9375 C 5.046875 -8.9375 4.019531 -8.671875 2.84375 -8.140625 L 1.859375 -10.15625 C 3.109375 -10.8125 4.5 -11.140625 6.03125 -11.140625 C 7.5 -11.140625 8.625 -10.820312 9.40625 -10.1875 C 10.1875 -9.550781 10.578125 -8.582031 10.578125 -7.28125 L 10.578125 0 Z M 7.625 -5.0625 L 6.46875 -5.015625 C 5.601562 -4.992188 4.957031 -4.835938 4.53125 -4.546875 C 4.101562 -4.265625 3.890625 -3.832031 3.890625 -3.25 C 3.890625 -2.40625 4.375 -1.984375 5.34375 -1.984375 C 6.03125 -1.984375 6.582031 -2.179688 7 -2.578125 C 7.414062 -2.972656 7.625 -3.5 7.625 -4.15625 Z M 7.625 -5.0625 "/></g></g></g><g fill="#bdbacf" fill-opacity="1"><g transform="translate(470.469332, 415.350119)"><g><path d="M 0 -10.921875 L 3.265625 -10.921875 L 5.328125 -4.78125 C 5.503906 -4.238281 5.625 -3.601562 5.6875 -2.875 L 5.75 -2.875 C 5.8125 -3.550781 5.945312 -4.1875 6.15625 -4.78125 L 8.1875 -10.921875 L 11.375 -10.921875 L 6.765625 1.390625 C 6.335938 2.535156 5.726562 3.390625 4.9375 3.953125 C 4.15625 4.523438 3.242188 4.8125 2.203125 4.8125 C 1.679688 4.8125 1.175781 4.753906 0.6875 4.640625 L 0.6875 2.28125 C 1.039062 2.363281 1.429688 2.40625 1.859375 2.40625 C 2.378906 2.40625 2.835938 2.242188 3.234375 1.921875 C 3.628906 1.597656 3.9375 1.109375 4.15625 0.453125 L 4.34375 -0.078125 Z M 0 -10.921875 "/></g></g></g><g fill="#bdbacf" fill-opacity="1"><g transform="translate(481.84184, 415.350119)"><g><path d="M 6.078125 -9 C 5.453125 -9 4.957031 -8.796875 4.59375 -8.390625 C 4.238281 -7.992188 4.035156 -7.429688 3.984375 -6.703125 L 8.171875 -6.703125 C 8.148438 -7.429688 7.953125 -7.992188 7.578125 -8.390625 C 7.210938 -8.796875 6.710938 -9 6.078125 -9 Z M 6.5 0.203125 C 4.75 0.203125 3.378906 -0.28125 2.390625 -1.25 C 1.398438 -2.226562 0.90625 -3.601562 0.90625 -5.375 C 0.90625 -7.207031 1.359375 -8.625 2.265625 -9.625 C 3.179688 -10.625 4.445312 -11.125 6.0625 -11.125 C 7.601562 -11.125 8.800781 -10.679688 9.65625 -9.796875 C 10.519531 -8.921875 10.953125 -7.707031 10.953125 -6.15625 L 10.953125 -4.71875 L 3.921875 -4.71875 C 3.953125 -3.875 4.203125 -3.210938 4.671875 -2.734375 C 5.140625 -2.253906 5.796875 -2.015625 6.640625 -2.015625 C 7.296875 -2.015625 7.914062 -2.082031 8.5 -2.21875 C 9.09375 -2.363281 9.707031 -2.582031 10.34375 -2.875 L 10.34375 -0.578125 C 9.820312 -0.316406 9.265625 -0.125 8.671875 0 C 8.078125 0.132812 7.351562 0.203125 6.5 0.203125 Z M 6.5 0.203125 "/></g></g></g><g fill="#bdbacf" fill-opacity="1"><g transform="translate(493.65363, 415.350119)"><g><path d="M 4.15625 0 L 0 -10.921875 L 3.109375 -10.921875 L 5.21875 -4.703125 C 5.457031 -3.910156 5.609375 -3.164062 5.671875 -2.46875 L 5.71875 -2.46875 C 5.75 -3.09375 5.894531 -3.835938 6.15625 -4.703125 L 8.265625 -10.921875 L 11.375 -10.921875 L 7.21875 0 Z M 4.15625 0 "/></g></g></g><g fill="#bdbacf" fill-opacity="1"><g transform="translate(505.026138, 415.350119)"><g><path d="M 1.140625 -1.390625 C 1.140625 -1.941406 1.285156 -2.359375 1.578125 -2.640625 C 1.867188 -2.921875 2.296875 -3.0625 2.859375 -3.0625 C 3.398438 -3.0625 3.816406 -2.914062 4.109375 -2.625 C 4.410156 -2.34375 4.5625 -1.929688 4.5625 -1.390625 C 4.5625 -0.878906 4.410156 -0.472656 4.109375 -0.171875 C 3.804688 0.117188 3.390625 0.265625 2.859375 0.265625 C 2.316406 0.265625 1.894531 0.117188 1.59375 -0.171875 C 1.289062 -0.460938 1.140625 -0.867188 1.140625 -1.390625 Z M 1.140625 -1.390625 "/></g></g></g><g fill="#bdbacf" fill-opacity="1"><g transform="translate(510.727035, 415.350119)"><g><path d="M 6 0.203125 C 2.601562 0.203125 0.90625 -1.664062 0.90625 -5.40625 C 0.90625 -7.257812 1.363281 -8.675781 2.28125 -9.65625 C 3.207031 -10.632812 4.535156 -11.125 6.265625 -11.125 C 7.523438 -11.125 8.65625 -10.875 9.65625 -10.375 L 8.78125 -8.078125 C 8.3125 -8.265625 7.875 -8.414062 7.46875 -8.53125 C 7.0625 -8.65625 6.660156 -8.71875 6.265625 -8.71875 C 4.710938 -8.71875 3.9375 -7.617188 3.9375 -5.421875 C 3.9375 -3.285156 4.710938 -2.21875 6.265625 -2.21875 C 6.835938 -2.21875 7.363281 -2.289062 7.84375 -2.4375 C 8.332031 -2.59375 8.820312 -2.835938 9.3125 -3.171875 L 9.3125 -0.609375 C 8.832031 -0.304688 8.347656 -0.0976562 7.859375 0.015625 C 7.367188 0.140625 6.75 0.203125 6 0.203125 Z M 6 0.203125 "/></g></g></g><g fill="#bdbacf" fill-opacity="1"><g transform="translate(521.006221, 415.350119)"><g><path d="M 3.9375 -5.484375 C 3.9375 -4.398438 4.113281 -3.582031 4.46875 -3.03125 C 4.820312 -2.476562 5.398438 -2.203125 6.203125 -2.203125 C 6.992188 -2.203125 7.5625 -2.472656 7.90625 -3.015625 C 8.257812 -3.566406 8.4375 -4.390625 8.4375 -5.484375 C 8.4375 -6.554688 8.257812 -7.363281 7.90625 -7.90625 C 7.5625 -8.445312 6.988281 -8.71875 6.1875 -8.71875 C 5.382812 -8.71875 4.804688 -8.445312 4.453125 -7.90625 C 4.109375 -7.375 3.9375 -6.566406 3.9375 -5.484375 Z M 11.484375 -5.484375 C 11.484375 -3.703125 11.015625 -2.304688 10.078125 -1.296875 C 9.140625 -0.296875 7.832031 0.203125 6.15625 0.203125 C 5.113281 0.203125 4.191406 -0.0234375 3.390625 -0.484375 C 2.585938 -0.953125 1.972656 -1.613281 1.546875 -2.46875 C 1.117188 -3.332031 0.90625 -4.335938 0.90625 -5.484375 C 0.90625 -7.265625 1.367188 -8.648438 2.296875 -9.640625 C 3.222656 -10.628906 4.53125 -11.125 6.21875 -11.125 C 7.269531 -11.125 8.195312 -10.894531 9 -10.4375 C 9.800781 -9.976562 10.414062 -9.320312 10.84375 -8.46875 C 11.269531 -7.625 11.484375 -6.628906 11.484375 -5.484375 Z M 11.484375 -5.484375 "/></g></g></g><g fill="#bdbacf" fill-opacity="1"><g transform="translate(533.384195, 415.350119)"><g><path d="M 11.34375 0 L 8.359375 0 L 8.359375 -6.375 C 8.359375 -7.164062 8.222656 -7.753906 7.953125 -8.140625 C 7.691406 -8.535156 7.28125 -8.734375 6.71875 -8.734375 C 5.957031 -8.734375 5.40625 -8.453125 5.0625 -7.890625 C 4.71875 -7.335938 4.546875 -6.421875 4.546875 -5.140625 L 4.546875 0 L 1.5625 0 L 1.5625 -10.921875 L 3.84375 -10.921875 L 4.234375 -9.515625 L 4.40625 -9.515625 C 4.695312 -10.023438 5.117188 -10.421875 5.671875 -10.703125 C 6.222656 -10.984375 6.859375 -11.125 7.578125 -11.125 C 9.210938 -11.125 10.320312 -10.585938 10.90625 -9.515625 L 11.15625 -9.515625 C 11.457031 -10.023438 11.890625 -10.421875 12.453125 -10.703125 C 13.023438 -10.984375 13.671875 -11.125 14.390625 -11.125 C 15.617188 -11.125 16.550781 -10.804688 17.1875 -10.171875 C 17.820312 -9.535156 18.140625 -8.519531 18.140625 -7.125 L 18.140625 0 L 15.15625 0 L 15.15625 -6.375 C 15.15625 -7.164062 15.019531 -7.753906 14.75 -8.140625 C 14.488281 -8.535156 14.078125 -8.734375 13.515625 -8.734375 C 12.785156 -8.734375 12.238281 -8.472656 11.875 -7.953125 C 11.519531 -7.429688 11.34375 -6.609375 11.34375 -5.484375 Z M 11.34375 0 "/></g></g></g><g clip-path="url(#id4)"><path fill="#bdbacf" d="M 310.410156 444.601562 L 589.585938 444.601562 L 589.585938 446.101562 L 310.410156 446.101562 Z M 310.410156 444.601562 " fill-opacity="1" fill-rule="nonzero"/></g><g fill="#bdbacf" fill-opacity="1"><g transform="translate(310.410181, 443.100117)"><g><path d="M 5.015625 0.203125 C 3.734375 0.203125 2.726562 -0.296875 2 -1.296875 C 1.269531 -2.296875 0.90625 -3.675781 0.90625 -5.4375 C 0.90625 -7.226562 1.273438 -8.625 2.015625 -9.625 C 2.765625 -10.625 3.789062 -11.125 5.09375 -11.125 C 6.46875 -11.125 7.519531 -10.585938 8.25 -9.515625 L 8.34375 -9.515625 C 8.1875 -10.335938 8.109375 -11.066406 8.109375 -11.703125 L 8.109375 -15.203125 L 11.109375 -15.203125 L 11.109375 0 L 8.8125 0 L 8.25 -1.421875 L 8.109375 -1.421875 C 7.429688 -0.335938 6.398438 0.203125 5.015625 0.203125 Z M 6.0625 -2.171875 C 6.820312 -2.171875 7.378906 -2.390625 7.734375 -2.828125 C 8.085938 -3.273438 8.285156 -4.03125 8.328125 -5.09375 L 8.328125 -5.421875 C 8.328125 -6.585938 8.144531 -7.425781 7.78125 -7.9375 C 7.414062 -8.445312 6.828125 -8.703125 6.015625 -8.703125 C 5.347656 -8.703125 4.832031 -8.421875 4.46875 -7.859375 C 4.101562 -7.296875 3.921875 -6.476562 3.921875 -5.40625 C 3.921875 -4.332031 4.101562 -3.523438 4.46875 -2.984375 C 4.84375 -2.441406 5.375 -2.171875 6.0625 -2.171875 Z M 6.0625 -2.171875 "/></g></g></g><g fill="#bdbacf" fill-opacity="1"><g transform="translate(323.061487, 443.100117)"><g><path d="M 11.34375 0 L 8.359375 0 L 8.359375 -6.375 C 8.359375 -7.164062 8.222656 -7.753906 7.953125 -8.140625 C 7.691406 -8.535156 7.28125 -8.734375 6.71875 -8.734375 C 5.957031 -8.734375 5.40625 -8.453125 5.0625 -7.890625 C 4.71875 -7.335938 4.546875 -6.421875 4.546875 -5.140625 L 4.546875 0 L 1.5625 0 L 1.5625 -10.921875 L 3.84375 -10.921875 L 4.234375 -9.515625 L 4.40625 -9.515625 C 4.695312 -10.023438 5.117188 -10.421875 5.671875 -10.703125 C 6.222656 -10.984375 6.859375 -11.125 7.578125 -11.125 C 9.210938 -11.125 10.320312 -10.585938 10.90625 -9.515625 L 11.15625 -9.515625 C 11.457031 -10.023438 11.890625 -10.421875 12.453125 -10.703125 C 13.023438 -10.984375 13.671875 -11.125 14.390625 -11.125 C 15.617188 -11.125 16.550781 -10.804688 17.1875 -10.171875 C 17.820312 -9.535156 18.140625 -8.519531 18.140625 -7.125 L 18.140625 0 L 15.15625 0 L 15.15625 -6.375 C 15.15625 -7.164062 15.019531 -7.753906 14.75 -8.140625 C 14.488281 -8.535156 14.078125 -8.734375 13.515625 -8.734375 C 12.785156 -8.734375 12.238281 -8.472656 11.875 -7.953125 C 11.519531 -7.429688 11.34375 -6.609375 11.34375 -5.484375 Z M 11.34375 0 "/></g></g></g><g fill="#bdbacf" fill-opacity="1"><g transform="translate(342.692486, 443.100117)"><g><path d="M 1.4375 -13.734375 C 1.4375 -14.710938 1.976562 -15.203125 3.0625 -15.203125 C 4.132812 -15.203125 4.671875 -14.710938 4.671875 -13.734375 C 4.671875 -13.273438 4.535156 -12.914062 4.265625 -12.65625 C 4.003906 -12.40625 3.601562 -12.28125 3.0625 -12.28125 C 1.976562 -12.28125 1.4375 -12.765625 1.4375 -13.734375 Z M 4.546875 0 L 1.5625 0 L 1.5625 -10.921875 L 4.546875 -10.921875 Z M 4.546875 0 "/></g></g></g><g fill="#bdbacf" fill-opacity="1"><g transform="translate(348.793617, 443.100117)"><g><path d="M 6.15625 -2.171875 C 6.675781 -2.171875 7.300781 -2.285156 8.03125 -2.515625 L 8.03125 -0.296875 C 7.289062 0.0351562 6.378906 0.203125 5.296875 0.203125 C 4.109375 0.203125 3.242188 -0.0976562 2.703125 -0.703125 C 2.160156 -1.304688 1.890625 -2.210938 1.890625 -3.421875 L 1.890625 -8.6875 L 0.453125 -8.6875 L 0.453125 -9.9375 L 2.09375 -10.9375 L 2.953125 -13.25 L 4.859375 -13.25 L 4.859375 -10.921875 L 7.921875 -10.921875 L 7.921875 -8.6875 L 4.859375 -8.6875 L 4.859375 -3.421875 C 4.859375 -2.992188 4.976562 -2.675781 5.21875 -2.46875 C 5.457031 -2.269531 5.769531 -2.171875 6.15625 -2.171875 Z M 6.15625 -2.171875 "/></g></g></g><g fill="#bdbacf" fill-opacity="1"><g transform="translate(357.471865, 443.100117)"><g><path d="M 7.65625 -11.125 C 8.0625 -11.125 8.394531 -11.09375 8.65625 -11.03125 L 8.4375 -8.25 C 8.195312 -8.3125 7.90625 -8.34375 7.5625 -8.34375 C 6.613281 -8.34375 5.875 -8.097656 5.34375 -7.609375 C 4.8125 -7.117188 4.546875 -6.4375 4.546875 -5.5625 L 4.546875 0 L 1.5625 0 L 1.5625 -10.921875 L 3.8125 -10.921875 L 4.265625 -9.078125 L 4.40625 -9.078125 C 4.738281 -9.691406 5.191406 -10.1875 5.765625 -10.5625 C 6.347656 -10.9375 6.976562 -11.125 7.65625 -11.125 Z M 7.65625 -11.125 "/></g></g></g><g fill="#bdbacf" fill-opacity="1"><g transform="translate(366.550348, 443.100117)"><g><path d="M 1.4375 -13.734375 C 1.4375 -14.710938 1.976562 -15.203125 3.0625 -15.203125 C 4.132812 -15.203125 4.671875 -14.710938 4.671875 -13.734375 C 4.671875 -13.273438 4.535156 -12.914062 4.265625 -12.65625 C 4.003906 -12.40625 3.601562 -12.28125 3.0625 -12.28125 C 1.976562 -12.28125 1.4375 -12.765625 1.4375 -13.734375 Z M 4.546875 0 L 1.5625 0 L 1.5625 -10.921875 L 4.546875 -10.921875 Z M 4.546875 0 "/></g></g></g><g fill="#bdbacf" fill-opacity="1"><g transform="translate(372.651479, 443.100117)"><g><path d="M 0 -10.921875 L 3.265625 -10.921875 L 5.328125 -4.78125 C 5.503906 -4.238281 5.625 -3.601562 5.6875 -2.875 L 5.75 -2.875 C 5.8125 -3.550781 5.945312 -4.1875 6.15625 -4.78125 L 8.1875 -10.921875 L 11.375 -10.921875 L 6.765625 1.390625 C 6.335938 2.535156 5.726562 3.390625 4.9375 3.953125 C 4.15625 4.523438 3.242188 4.8125 2.203125 4.8125 C 1.679688 4.8125 1.175781 4.753906 0.6875 4.640625 L 0.6875 2.28125 C 1.039062 2.363281 1.429688 2.40625 1.859375 2.40625 C 2.378906 2.40625 2.835938 2.242188 3.234375 1.921875 C 3.628906 1.597656 3.9375 1.109375 4.15625 0.453125 L 4.34375 -0.078125 Z M 0 -10.921875 "/></g></g></g><g fill="#bdbacf" fill-opacity="1"><g transform="translate(384.023987, 443.100117)"><g><path d="M 11.34375 0 L 8.359375 0 L 8.359375 -6.375 C 8.359375 -7.164062 8.222656 -7.753906 7.953125 -8.140625 C 7.691406 -8.535156 7.28125 -8.734375 6.71875 -8.734375 C 5.957031 -8.734375 5.40625 -8.453125 5.0625 -7.890625 C 4.71875 -7.335938 4.546875 -6.421875 4.546875 -5.140625 L 4.546875 0 L 1.5625 0 L 1.5625 -10.921875 L 3.84375 -10.921875 L 4.234375 -9.515625 L 4.40625 -9.515625 C 4.695312 -10.023438 5.117188 -10.421875 5.671875 -10.703125 C 6.222656 -10.984375 6.859375 -11.125 7.578125 -11.125 C 9.210938 -11.125 10.320312 -10.585938 10.90625 -9.515625 L 11.15625 -9.515625 C 11.457031 -10.023438 11.890625 -10.421875 12.453125 -10.703125 C 13.023438 -10.984375 13.671875 -11.125 14.390625 -11.125 C 15.617188 -11.125 16.550781 -10.804688 17.1875 -10.171875 C 17.820312 -9.535156 18.140625 -8.519531 18.140625 -7.125 L 18.140625 0 L 15.15625 0 L 15.15625 -6.375 C 15.15625 -7.164062 15.019531 -7.753906 14.75 -8.140625 C 14.488281 -8.535156 14.078125 -8.734375 13.515625 -8.734375 C 12.785156 -8.734375 12.238281 -8.472656 11.875 -7.953125 C 11.519531 -7.429688 11.34375 -6.609375 11.34375 -5.484375 Z M 11.34375 0 "/></g></g></g><g fill="#bdbacf" fill-opacity="1"><g transform="translate(403.654986, 443.100117)"><g><path d="M 8.5 0 L 7.921875 -1.484375 L 7.84375 -1.484375 C 7.34375 -0.847656 6.828125 -0.40625 6.296875 -0.15625 C 5.765625 0.0820312 5.070312 0.203125 4.21875 0.203125 C 3.164062 0.203125 2.335938 -0.0976562 1.734375 -0.703125 C 1.140625 -1.304688 0.84375 -2.160156 0.84375 -3.265625 C 0.84375 -4.421875 1.242188 -5.273438 2.046875 -5.828125 C 2.859375 -6.378906 4.082031 -6.679688 5.71875 -6.734375 L 7.625 -6.796875 L 7.625 -7.28125 C 7.625 -8.382812 7.054688 -8.9375 5.921875 -8.9375 C 5.046875 -8.9375 4.019531 -8.671875 2.84375 -8.140625 L 1.859375 -10.15625 C 3.109375 -10.8125 4.5 -11.140625 6.03125 -11.140625 C 7.5 -11.140625 8.625 -10.820312 9.40625 -10.1875 C 10.1875 -9.550781 10.578125 -8.582031 10.578125 -7.28125 L 10.578125 0 Z M 7.625 -5.0625 L 6.46875 -5.015625 C 5.601562 -4.992188 4.957031 -4.835938 4.53125 -4.546875 C 4.101562 -4.265625 3.890625 -3.832031 3.890625 -3.25 C 3.890625 -2.40625 4.375 -1.984375 5.34375 -1.984375 C 6.03125 -1.984375 6.582031 -2.179688 7 -2.578125 C 7.414062 -2.972656 7.625 -3.5 7.625 -4.15625 Z M 7.625 -5.0625 "/></g></g></g><g fill="#bdbacf" fill-opacity="1"><g transform="translate(415.730345, 443.100117)"><g><path d="M 4.546875 0 L 1.5625 0 L 1.5625 -15.203125 L 4.546875 -15.203125 Z M 4.546875 0 "/></g></g></g><g fill="#bdbacf" fill-opacity="1"><g transform="translate(421.831476, 443.100117)"><g><path d="M 8.5 0 L 7.921875 -1.484375 L 7.84375 -1.484375 C 7.34375 -0.847656 6.828125 -0.40625 6.296875 -0.15625 C 5.765625 0.0820312 5.070312 0.203125 4.21875 0.203125 C 3.164062 0.203125 2.335938 -0.0976562 1.734375 -0.703125 C 1.140625 -1.304688 0.84375 -2.160156 0.84375 -3.265625 C 0.84375 -4.421875 1.242188 -5.273438 2.046875 -5.828125 C 2.859375 -6.378906 4.082031 -6.679688 5.71875 -6.734375 L 7.625 -6.796875 L 7.625 -7.28125 C 7.625 -8.382812 7.054688 -8.9375 5.921875 -8.9375 C 5.046875 -8.9375 4.019531 -8.671875 2.84375 -8.140625 L 1.859375 -10.15625 C 3.109375 -10.8125 4.5 -11.140625 6.03125 -11.140625 C 7.5 -11.140625 8.625 -10.820312 9.40625 -10.1875 C 10.1875 -9.550781 10.578125 -8.582031 10.578125 -7.28125 L 10.578125 0 Z M 7.625 -5.0625 L 6.46875 -5.015625 C 5.601562 -4.992188 4.957031 -4.835938 4.53125 -4.546875 C 4.101562 -4.265625 3.890625 -3.832031 3.890625 -3.25 C 3.890625 -2.40625 4.375 -1.984375 5.34375 -1.984375 C 6.03125 -1.984375 6.582031 -2.179688 7 -2.578125 C 7.414062 -2.972656 7.625 -3.5 7.625 -4.15625 Z M 7.625 -5.0625 "/></g></g></g><g fill="#bdbacf" fill-opacity="1"><g transform="translate(433.906834, 443.100117)"><g><path d="M 0 -10.921875 L 3.265625 -10.921875 L 5.328125 -4.78125 C 5.503906 -4.238281 5.625 -3.601562 5.6875 -2.875 L 5.75 -2.875 C 5.8125 -3.550781 5.945312 -4.1875 6.15625 -4.78125 L 8.1875 -10.921875 L 11.375 -10.921875 L 6.765625 1.390625 C 6.335938 2.535156 5.726562 3.390625 4.9375 3.953125 C 4.15625 4.523438 3.242188 4.8125 2.203125 4.8125 C 1.679688 4.8125 1.175781 4.753906 0.6875 4.640625 L 0.6875 2.28125 C 1.039062 2.363281 1.429688 2.40625 1.859375 2.40625 C 2.378906 2.40625 2.835938 2.242188 3.234375 1.921875 C 3.628906 1.597656 3.9375 1.109375 4.15625 0.453125 L 4.34375 -0.078125 Z M 0 -10.921875 "/></g></g></g><g fill="#bdbacf" fill-opacity="1"><g transform="translate(445.279343, 443.100117)"><g><path d="M 6.078125 -9 C 5.453125 -9 4.957031 -8.796875 4.59375 -8.390625 C 4.238281 -7.992188 4.035156 -7.429688 3.984375 -6.703125 L 8.171875 -6.703125 C 8.148438 -7.429688 7.953125 -7.992188 7.578125 -8.390625 C 7.210938 -8.796875 6.710938 -9 6.078125 -9 Z M 6.5 0.203125 C 4.75 0.203125 3.378906 -0.28125 2.390625 -1.25 C 1.398438 -2.226562 0.90625 -3.601562 0.90625 -5.375 C 0.90625 -7.207031 1.359375 -8.625 2.265625 -9.625 C 3.179688 -10.625 4.445312 -11.125 6.0625 -11.125 C 7.601562 -11.125 8.800781 -10.679688 9.65625 -9.796875 C 10.519531 -8.921875 10.953125 -7.707031 10.953125 -6.15625 L 10.953125 -4.71875 L 3.921875 -4.71875 C 3.953125 -3.875 4.203125 -3.210938 4.671875 -2.734375 C 5.140625 -2.253906 5.796875 -2.015625 6.640625 -2.015625 C 7.296875 -2.015625 7.914062 -2.082031 8.5 -2.21875 C 9.09375 -2.363281 9.707031 -2.582031 10.34375 -2.875 L 10.34375 -0.578125 C 9.820312 -0.316406 9.265625 -0.125 8.671875 0 C 8.078125 0.132812 7.351562 0.203125 6.5 0.203125 Z M 6.5 0.203125 "/></g></g></g><g fill="#bdbacf" fill-opacity="1"><g transform="translate(457.091132, 443.100117)"><g><path d="M 4.15625 0 L 0 -10.921875 L 3.109375 -10.921875 L 5.21875 -4.703125 C 5.457031 -3.910156 5.609375 -3.164062 5.671875 -2.46875 L 5.71875 -2.46875 C 5.75 -3.09375 5.894531 -3.835938 6.15625 -4.703125 L 8.265625 -10.921875 L 11.375 -10.921875 L 7.21875 0 Z M 4.15625 0 "/></g></g></g><g fill="#bdbacf" fill-opacity="1"><g transform="translate(468.463641, 443.100117)"><g><path d="M 16.9375 -7.34375 C 16.9375 -6.40625 16.785156 -5.546875 16.484375 -4.765625 C 16.191406 -3.992188 15.769531 -3.382812 15.21875 -2.9375 C 14.675781 -2.5 14.046875 -2.28125 13.328125 -2.28125 C 12.835938 -2.28125 12.40625 -2.394531 12.03125 -2.625 C 11.664062 -2.851562 11.398438 -3.15625 11.234375 -3.53125 L 11.078125 -3.53125 C 10.378906 -2.695312 9.488281 -2.28125 8.40625 -2.28125 C 7.25 -2.28125 6.335938 -2.625 5.671875 -3.3125 C 5.003906 -4.007812 4.671875 -4.957031 4.671875 -6.15625 C 4.671875 -7.53125 5.109375 -8.640625 5.984375 -9.484375 C 6.859375 -10.328125 8 -10.75 9.40625 -10.75 C 9.96875 -10.75 10.582031 -10.691406 11.25 -10.578125 C 11.925781 -10.472656 12.484375 -10.347656 12.921875 -10.203125 L 12.703125 -5.421875 C 12.703125 -4.515625 12.945312 -4.0625 13.4375 -4.0625 C 13.851562 -4.0625 14.1875 -4.363281 14.4375 -4.96875 C 14.6875 -5.582031 14.8125 -6.378906 14.8125 -7.359375 C 14.8125 -8.410156 14.59375 -9.335938 14.15625 -10.140625 C 13.71875 -10.941406 13.101562 -11.554688 12.3125 -11.984375 C 11.519531 -12.410156 10.613281 -12.625 9.59375 -12.625 C 8.28125 -12.625 7.140625 -12.351562 6.171875 -11.8125 C 5.203125 -11.269531 4.457031 -10.488281 3.9375 -9.46875 C 3.425781 -8.445312 3.171875 -7.269531 3.171875 -5.9375 C 3.171875 -4.144531 3.648438 -2.765625 4.609375 -1.796875 C 5.566406 -0.835938 6.957031 -0.359375 8.78125 -0.359375 C 9.46875 -0.359375 10.222656 -0.4375 11.046875 -0.59375 C 11.878906 -0.75 12.695312 -0.972656 13.5 -1.265625 L 13.5 0.609375 C 12.101562 1.203125 10.554688 1.5 8.859375 1.5 C 6.378906 1.5 4.445312 0.847656 3.0625 -0.453125 C 1.6875 -1.753906 1 -3.5625 1 -5.875 C 1 -7.488281 1.347656 -8.953125 2.046875 -10.265625 C 2.753906 -11.578125 3.757812 -12.601562 5.0625 -13.34375 C 6.375 -14.09375 7.878906 -14.46875 9.578125 -14.46875 C 11.015625 -14.46875 12.296875 -14.171875 13.421875 -13.578125 C 14.546875 -12.992188 15.410156 -12.160156 16.015625 -11.078125 C 16.628906 -10.003906 16.9375 -8.757812 16.9375 -7.34375 Z M 6.9375 -6.125 C 6.9375 -4.75 7.5 -4.0625 8.625 -4.0625 C 9.207031 -4.0625 9.648438 -4.265625 9.953125 -4.671875 C 10.265625 -5.085938 10.453125 -5.765625 10.515625 -6.703125 L 10.640625 -8.859375 C 10.304688 -8.929688 9.929688 -8.96875 9.515625 -8.96875 C 8.703125 -8.96875 8.066406 -8.710938 7.609375 -8.203125 C 7.160156 -7.691406 6.9375 -7 6.9375 -6.125 Z M 6.9375 -6.125 "/></g></g></g><g fill="#bdbacf" fill-opacity="1"><g transform="translate(486.396085, 443.100117)"><g><path d="M 11.0625 -10.921875 L 11.0625 -9.40625 L 9.359375 -8.96875 C 9.671875 -8.476562 9.828125 -7.929688 9.828125 -7.328125 C 9.828125 -6.148438 9.414062 -5.234375 8.59375 -4.578125 C 7.78125 -3.929688 6.648438 -3.609375 5.203125 -3.609375 L 4.65625 -3.640625 L 4.21875 -3.6875 C 3.914062 -3.445312 3.765625 -3.1875 3.765625 -2.90625 C 3.765625 -2.46875 4.3125 -2.25 5.40625 -2.25 L 7.25 -2.25 C 8.445312 -2.25 9.359375 -1.992188 9.984375 -1.484375 C 10.617188 -0.972656 10.9375 -0.21875 10.9375 0.78125 C 10.9375 2.0625 10.40625 3.050781 9.34375 3.75 C 8.28125 4.457031 6.75 4.8125 4.75 4.8125 C 3.226562 4.8125 2.066406 4.546875 1.265625 4.015625 C 0.460938 3.484375 0.0625 2.738281 0.0625 1.78125 C 0.0625 1.125 0.265625 0.570312 0.671875 0.125 C 1.085938 -0.3125 1.691406 -0.628906 2.484375 -0.828125 C 2.171875 -0.953125 1.898438 -1.160156 1.671875 -1.453125 C 1.453125 -1.753906 1.34375 -2.070312 1.34375 -2.40625 C 1.34375 -2.820312 1.460938 -3.164062 1.703125 -3.4375 C 1.941406 -3.71875 2.289062 -3.992188 2.75 -4.265625 C 2.175781 -4.503906 1.71875 -4.894531 1.375 -5.4375 C 1.039062 -5.988281 0.875 -6.640625 0.875 -7.390625 C 0.875 -8.578125 1.257812 -9.492188 2.03125 -10.140625 C 2.8125 -10.796875 3.921875 -11.125 5.359375 -11.125 C 5.671875 -11.125 6.035156 -11.09375 6.453125 -11.03125 C 6.867188 -10.976562 7.132812 -10.941406 7.25 -10.921875 Z M 2.640625 1.546875 C 2.640625 1.953125 2.832031 2.269531 3.21875 2.5 C 3.613281 2.738281 4.171875 2.859375 4.890625 2.859375 C 5.953125 2.859375 6.785156 2.710938 7.390625 2.421875 C 7.992188 2.128906 8.296875 1.726562 8.296875 1.21875 C 8.296875 0.8125 8.117188 0.53125 7.765625 0.375 C 7.410156 0.21875 6.859375 0.140625 6.109375 0.140625 L 4.5625 0.140625 C 4.007812 0.140625 3.550781 0.265625 3.1875 0.515625 C 2.820312 0.773438 2.640625 1.117188 2.640625 1.546875 Z M 3.71875 -7.34375 C 3.71875 -6.75 3.851562 -6.28125 4.125 -5.9375 C 4.394531 -5.59375 4.804688 -5.421875 5.359375 -5.421875 C 5.921875 -5.421875 6.332031 -5.59375 6.59375 -5.9375 C 6.851562 -6.28125 6.984375 -6.75 6.984375 -7.34375 C 6.984375 -8.65625 6.441406 -9.3125 5.359375 -9.3125 C 4.265625 -9.3125 3.71875 -8.65625 3.71875 -7.34375 Z M 3.71875 -7.34375 "/></g></g></g><g fill="#bdbacf" fill-opacity="1"><g transform="translate(497.690498, 443.100117)"><g><path d="M 11.34375 0 L 8.359375 0 L 8.359375 -6.375 C 8.359375 -7.164062 8.222656 -7.753906 7.953125 -8.140625 C 7.691406 -8.535156 7.28125 -8.734375 6.71875 -8.734375 C 5.957031 -8.734375 5.40625 -8.453125 5.0625 -7.890625 C 4.71875 -7.335938 4.546875 -6.421875 4.546875 -5.140625 L 4.546875 0 L 1.5625 0 L 1.5625 -10.921875 L 3.84375 -10.921875 L 4.234375 -9.515625 L 4.40625 -9.515625 C 4.695312 -10.023438 5.117188 -10.421875 5.671875 -10.703125 C 6.222656 -10.984375 6.859375 -11.125 7.578125 -11.125 C 9.210938 -11.125 10.320312 -10.585938 10.90625 -9.515625 L 11.15625 -9.515625 C 11.457031 -10.023438 11.890625 -10.421875 12.453125 -10.703125 C 13.023438 -10.984375 13.671875 -11.125 14.390625 -11.125 C 15.617188 -11.125 16.550781 -10.804688 17.1875 -10.171875 C 17.820312 -9.535156 18.140625 -8.519531 18.140625 -7.125 L 18.140625 0 L 15.15625 0 L 15.15625 -6.375 C 15.15625 -7.164062 15.019531 -7.753906 14.75 -8.140625 C 14.488281 -8.535156 14.078125 -8.734375 13.515625 -8.734375 C 12.785156 -8.734375 12.238281 -8.472656 11.875 -7.953125 C 11.519531 -7.429688 11.34375 -6.609375 11.34375 -5.484375 Z M 11.34375 0 "/></g></g></g><g fill="#bdbacf" fill-opacity="1"><g transform="translate(517.321497, 443.100117)"><g><path d="M 8.5 0 L 7.921875 -1.484375 L 7.84375 -1.484375 C 7.34375 -0.847656 6.828125 -0.40625 6.296875 -0.15625 C 5.765625 0.0820312 5.070312 0.203125 4.21875 0.203125 C 3.164062 0.203125 2.335938 -0.0976562 1.734375 -0.703125 C 1.140625 -1.304688 0.84375 -2.160156 0.84375 -3.265625 C 0.84375 -4.421875 1.242188 -5.273438 2.046875 -5.828125 C 2.859375 -6.378906 4.082031 -6.679688 5.71875 -6.734375 L 7.625 -6.796875 L 7.625 -7.28125 C 7.625 -8.382812 7.054688 -8.9375 5.921875 -8.9375 C 5.046875 -8.9375 4.019531 -8.671875 2.84375 -8.140625 L 1.859375 -10.15625 C 3.109375 -10.8125 4.5 -11.140625 6.03125 -11.140625 C 7.5 -11.140625 8.625 -10.820312 9.40625 -10.1875 C 10.1875 -9.550781 10.578125 -8.582031 10.578125 -7.28125 L 10.578125 0 Z M 7.625 -5.0625 L 6.46875 -5.015625 C 5.601562 -4.992188 4.957031 -4.835938 4.53125 -4.546875 C 4.101562 -4.265625 3.890625 -3.832031 3.890625 -3.25 C 3.890625 -2.40625 4.375 -1.984375 5.34375 -1.984375 C 6.03125 -1.984375 6.582031 -2.179688 7 -2.578125 C 7.414062 -2.972656 7.625 -3.5 7.625 -4.15625 Z M 7.625 -5.0625 "/></g></g></g><g fill="#bdbacf" fill-opacity="1"><g transform="translate(529.396844, 443.100117)"><g><path d="M 1.4375 -13.734375 C 1.4375 -14.710938 1.976562 -15.203125 3.0625 -15.203125 C 4.132812 -15.203125 4.671875 -14.710938 4.671875 -13.734375 C 4.671875 -13.273438 4.535156 -12.914062 4.265625 -12.65625 C 4.003906 -12.40625 3.601562 -12.28125 3.0625 -12.28125 C 1.976562 -12.28125 1.4375 -12.765625 1.4375 -13.734375 Z M 4.546875 0 L 1.5625 0 L 1.5625 -10.921875 L 4.546875 -10.921875 Z M 4.546875 0 "/></g></g></g><g fill="#bdbacf" fill-opacity="1"><g transform="translate(535.497964, 443.100117)"><g><path d="M 4.546875 0 L 1.5625 0 L 1.5625 -15.203125 L 4.546875 -15.203125 Z M 4.546875 0 "/></g></g></g><g fill="#bdbacf" fill-opacity="1"><g transform="translate(541.599084, 443.100117)"><g><path d="M 1.140625 -1.390625 C 1.140625 -1.941406 1.285156 -2.359375 1.578125 -2.640625 C 1.867188 -2.921875 2.296875 -3.0625 2.859375 -3.0625 C 3.398438 -3.0625 3.816406 -2.914062 4.109375 -2.625 C 4.410156 -2.34375 4.5625 -1.929688 4.5625 -1.390625 C 4.5625 -0.878906 4.410156 -0.472656 4.109375 -0.171875 C 3.804688 0.117188 3.390625 0.265625 2.859375 0.265625 C 2.316406 0.265625 1.894531 0.117188 1.59375 -0.171875 C 1.289062 -0.460938 1.140625 -0.867188 1.140625 -1.390625 Z M 1.140625 -1.390625 "/></g></g></g><g fill="#bdbacf" fill-opacity="1"><g transform="translate(547.299981, 443.100117)"><g><path d="M 6 0.203125 C 2.601562 0.203125 0.90625 -1.664062 0.90625 -5.40625 C 0.90625 -7.257812 1.363281 -8.675781 2.28125 -9.65625 C 3.207031 -10.632812 4.535156 -11.125 6.265625 -11.125 C 7.523438 -11.125 8.65625 -10.875 9.65625 -10.375 L 8.78125 -8.078125 C 8.3125 -8.265625 7.875 -8.414062 7.46875 -8.53125 C 7.0625 -8.65625 6.660156 -8.71875 6.265625 -8.71875 C 4.710938 -8.71875 3.9375 -7.617188 3.9375 -5.421875 C 3.9375 -3.285156 4.710938 -2.21875 6.265625 -2.21875 C 6.835938 -2.21875 7.363281 -2.289062 7.84375 -2.4375 C 8.332031 -2.59375 8.820312 -2.835938 9.3125 -3.171875 L 9.3125 -0.609375 C 8.832031 -0.304688 8.347656 -0.0976562 7.859375 0.015625 C 7.367188 0.140625 6.75 0.203125 6 0.203125 Z M 6 0.203125 "/></g></g></g><g fill="#bdbacf" fill-opacity="1"><g transform="translate(557.579155, 443.100117)"><g><path d="M 3.9375 -5.484375 C 3.9375 -4.398438 4.113281 -3.582031 4.46875 -3.03125 C 4.820312 -2.476562 5.398438 -2.203125 6.203125 -2.203125 C 6.992188 -2.203125 7.5625 -2.472656 7.90625 -3.015625 C 8.257812 -3.566406 8.4375 -4.390625 8.4375 -5.484375 C 8.4375 -6.554688 8.257812 -7.363281 7.90625 -7.90625 C 7.5625 -8.445312 6.988281 -8.71875 6.1875 -8.71875 C 5.382812 -8.71875 4.804688 -8.445312 4.453125 -7.90625 C 4.109375 -7.375 3.9375 -6.566406 3.9375 -5.484375 Z M 11.484375 -5.484375 C 11.484375 -3.703125 11.015625 -2.304688 10.078125 -1.296875 C 9.140625 -0.296875 7.832031 0.203125 6.15625 0.203125 C 5.113281 0.203125 4.191406 -0.0234375 3.390625 -0.484375 C 2.585938 -0.953125 1.972656 -1.613281 1.546875 -2.46875 C 1.117188 -3.332031 0.90625 -4.335938 0.90625 -5.484375 C 0.90625 -7.265625 1.367188 -8.648438 2.296875 -9.640625 C 3.222656 -10.628906 4.53125 -11.125 6.21875 -11.125 C 7.269531 -11.125 8.195312 -10.894531 9 -10.4375 C 9.800781 -9.976562 10.414062 -9.320312 10.84375 -8.46875 C 11.269531 -7.625 11.484375 -6.628906 11.484375 -5.484375 Z M 11.484375 -5.484375 "/></g></g></g><g fill="#bdbacf" fill-opacity="1"><g transform="translate(569.957129, 443.100117)"><g><path d="M 11.34375 0 L 8.359375 0 L 8.359375 -6.375 C 8.359375 -7.164062 8.222656 -7.753906 7.953125 -8.140625 C 7.691406 -8.535156 7.28125 -8.734375 6.71875 -8.734375 C 5.957031 -8.734375 5.40625 -8.453125 5.0625 -7.890625 C 4.71875 -7.335938 4.546875 -6.421875 4.546875 -5.140625 L 4.546875 0 L 1.5625 0 L 1.5625 -10.921875 L 3.84375 -10.921875 L 4.234375 -9.515625 L 4.40625 -9.515625 C 4.695312 -10.023438 5.117188 -10.421875 5.671875 -10.703125 C 6.222656 -10.984375 6.859375 -11.125 7.578125 -11.125 C 9.210938 -11.125 10.320312 -10.585938 10.90625 -9.515625 L 11.15625 -9.515625 C 11.457031 -10.023438 11.890625 -10.421875 12.453125 -10.703125 C 13.023438 -10.984375 13.671875 -11.125 14.390625 -11.125 C 15.617188 -11.125 16.550781 -10.804688 17.1875 -10.171875 C 17.820312 -9.535156 18.140625 -8.519531 18.140625 -7.125 L 18.140625 0 L 15.15625 0 L 15.15625 -6.375 C 15.15625 -7.164062 15.019531 -7.753906 14.75 -8.140625 C 14.488281 -8.535156 14.078125 -8.734375 13.515625 -8.734375 C 12.785156 -8.734375 12.238281 -8.472656 11.875 -7.953125 C 11.519531 -7.429688 11.34375 -6.609375 11.34375 -5.484375 Z M 11.34375 0 "/></g></g></g></svg>