<?xml version="1.0" standalone="no"?>
<!DOCTYPE svg PUBLIC "-//W3C//DTD SVG 20010904//EN"
 "http://www.w3.org/TR/2001/REC-SVG-20010904/DTD/svg10.dtd">
<svg version="1.0" xmlns="http://www.w3.org/2000/svg"
 width="700.000000pt" height="700.000000pt" viewBox="0 0 700.000000 700.000000"
 preserveAspectRatio="xMidYMid meet">
<metadata>
Created by potrace 1.14, written by Peter Selinger 2001-2017
</metadata>
<g transform="translate(0.000000,700.000000) scale(0.100000,-0.100000)"
fill="#000000" stroke="none">
<path d="M0 3500 l0 -3500 3500 0 3500 0 0 3500 0 3500 -3500 0 -3500 0 0
-3500z m1770 2751 l0 -238 -152 -6 c-308 -10 -399 -77 -443 -322 -13 -70 -19
-202 -25 -595 -5 -278 -14 -552 -20 -610 -25 -230 -86 -425 -176 -561 -76
-115 -206 -225 -368 -310 l-68 -36 57 -27 c235 -108 413 -309 490 -556 64
-206 82 -413 90 -1022 4 -329 9 -466 20 -522 26 -139 75 -220 158 -260 68 -33
204 -56 333 -56 l104 0 0 -235 c0 -202 -2 -236 -15 -241 -9 -4 -118 -2 -243 4
-244 12 -321 26 -425 79 -234 117 -370 328 -411 633 -20 149 -36 452 -36 705
0 382 -28 728 -67 844 -79 235 -257 380 -492 400 l-66 6 -3 246 -2 247 57 7
c254 30 429 166 502 389 47 140 70 424 71 841 0 304 15 611 35 723 63 364 229
579 516 671 86 28 186 38 402 40 l177 1 0 -239z m3880 229 c195 -24 324 -84
451 -210 70 -70 93 -101 132 -180 49 -101 80 -210 96 -350 16 -131 31 -461 31
-700 0 -118 5 -291 10 -385 23 -391 63 -527 200 -666 94 -95 203 -144 368
-164 l52 -7 0 -243 c0 -269 4 -255 -69 -255 -20 0 -64 -7 -96 -15 -204 -52
-355 -208 -409 -420 -37 -149 -56 -409 -56 -780 -1 -592 -32 -852 -126 -1038
-50 -99 -83 -144 -161 -217 -76 -72 -173 -125 -294 -161 -64 -19 -105 -22
-311 -26 l-238 -5 0 236 0 236 88 0 c270 1 422 64 471 196 45 120 52 202 61
749 9 548 16 638 55 802 77 322 240 533 517 669 l57 28 -72 39 c-275 149 -430
346 -498 634 -42 175 -49 274 -59 793 -11 546 -18 662 -50 756 -24 71 -76 136
-129 164 -62 31 -180 50 -316 50 l-125 0 0 240 0 240 168 0 c92 0 206 -5 252
-10z m-2460 -525 l0 -185 -180 0 -180 0 0 185 0 185 180 0 180 0 0 -185z m788
-352 l-3 -128 -127 -3 -128 -3 0 131 0 130 130 0 131 0 -3 -127z m542 -193 l0
-180 -185 0 -185 0 0 180 0 180 185 0 185 0 0 -180z m-1300 -330 l0 -380 -380
0 -380 0 0 380 0 380 380 0 380 0 0 -380z m1408 -102 l3 -128 -131 0 -130 0 0
130 0 131 128 -3 127 -3 3 -127z m-2668 -38 l0 -131 -127 3 -128 3 -3 128 -3
127 131 0 130 0 0 -130z m3338 -132 l3 -128 -131 0 -130 0 0 130 0 131 128 -3
127 -3 3 -127z m-1208 -178 l0 -260 -260 0 -260 0 0 260 0 260 260 0 260 0 0
-260z m-1620 -575 l0 -325 -325 0 -325 0 0 318 c0 175 3 322 7 325 3 4 150 7
325 7 l318 0 0 -325z m768 163 l3 -128 -131 0 -130 0 0 130 0 131 128 -3 127
-3 3 -127z m1632 -138 l0 -260 -260 0 -260 0 0 260 0 260 260 0 260 0 0 -260z
m-640 -300 l0 -330 -330 0 -330 0 0 330 0 330 330 0 330 0 0 -330z m-1150
-420 l0 -260 -255 0 -255 0 0 260 0 260 255 0 255 0 0 -260z m1800 -80 l0
-230 -235 0 -235 0 0 230 0 230 235 0 235 0 0 -230z m-1190 -90 l0 -130 -130
0 -130 0 0 123 c0 68 3 127 7 130 3 4 62 7 130 7 l123 0 0 -130z m600 -355 l0
-235 -230 0 -230 0 0 235 0 235 230 0 230 0 0 -235z m-2120 85 l0 -130 -130 0
-130 0 0 130 0 130 130 0 130 0 0 -130z m640 -110 l0 -130 -130 0 -130 0 0
123 c0 68 3 127 7 130 3 4 62 7 130 7 l123 0 0 -130z m840 -160 l0 -260 -260
0 -260 0 0 260 0 260 260 0 260 0 0 -260z m-712 -617 l-3 -378 -377 -3 -378
-2 0 380 0 380 380 0 380 0 -2 -377z m1532 -63 l0 -260 -255 0 -255 0 0 260 0
260 255 0 255 0 0 -260z m-792 -172 l-3 -233 -232 -3 -233 -2 0 235 0 235 235
0 235 0 -2 -232z m-818 -883 l0 -255 -260 0 -260 0 0 255 0 255 260 0 260 0 0
-255z m508 28 l3 -153 -156 0 -155 0 0 155 0 156 153 -3 152 -3 3 -152z"/>
</g>
</svg>
